<?xml version="1.0" encoding="utf-8"?>
<!-- Generator: Adobe Illustrator 27.9.3, SVG Export Plug-In . SVG Version: 9.03 Build 53313)  -->
<svg version="1.1" id="Слой_1" xmlns="http://www.w3.org/2000/svg" xmlns:xlink="http://www.w3.org/1999/xlink" x="0px" y="0px"
	 viewBox="0 0 170.1 113.4" style="enable-background:new 0 0 170.1 113.4;" xml:space="preserve">
<style type="text/css">
	.st0{display:none;}
	.st1{fill:#1C1E1F;}
</style>
<g id="Artboard1" transform="matrix(1.06296,0,0,0.792519,21.0501,10.849)" class="st0">
</g>
<g transform="translate(0.000000,1265.000000) scale(0.100000,-0.100000)">
	<path class="st1" d="M98.4,12487.8c-7.5-3.1-12.2-9.5-12.3-17c0-2,0.1-3,0.8-5.3c0.8-2.7,1.4-4.1,3-6.5c1.2-1.8,3-3.9,4.2-4.8
		c1.5-1.2,4.9-2.8,8.7-4.1c4.2-1.5,8-2.6,21.7-6.3c16.6-4.5,22.3-6.2,28.4-8.6c5.9-2.3,7.2-3.2,11.2-7.5l2-2.1l-1-1.7
		c-2.5-4.3-3.9-6.5-5.9-9.8c-2.7-4.3-5.5-8.5-7.6-11.4l-0.9-1.2l-0.9-0.3c-3-0.9-6.8-2.9-9.8-5.2c-10.2-8.1-13.8-22.2-8.7-34.2
		c1.7-3.9,4.4-7.8,7.7-10.6c0.8-0.8,1.2-0.9,1.8-0.7s0.7,0.7,1,5.2c0.8,11.3,1.2,15.8,1.3,16.6c0.2,1,1.2,2.9,2,3.7
		c1.2,1.2,3.1,2.2,4.7,2.3c0.7,0.1,14.7-0.9,16.3-1.1c3-0.4,5.5-2.6,6.3-5.5c0.4-1.3,0.4-1.9,0-7c-0.9-12.4-1.2-16.3-1.1-16.7
		c0.1-0.5,0.8-0.9,1.3-0.7c0.8,0.2,4.3,2.7,5.9,4.1c4.8,4.4,7.9,9.9,9.1,16.2c0.6,3.2,0.7,6.2,0.3,9.4c-0.3,2.1-1.3,5.8-2,7.6
		c-1,2.3-2.4,4.7-3.8,6.5l-0.8,1.1l0.3,0.6c0.9,2,4.1,8.6,6.2,12.7c1.9,3.7,5.4,10.3,5.5,10.3c0,0,3.1-1.5,6.9-3.3
		c3.8-1.8,14.2-6.9,23.1-11.3c17.2-8.4,16.8-8.1,17-9.2c0.1-0.2,0.1-1.2,0.2-2.2c0.1-2.7,0.4-3.8,1.7-5c1.5-1.5,2.3-2,4.3-2.8
		c1.9-0.8,3.9-1.4,9.4-2.8c2.7-0.7,5.6-1.5,6.6-1.8s1.8-0.6,1.8-0.5c0,0,1.8,3.2,3.8,7.1c3.2,6.1,3.8,7.2,3.7,7.5
		c-0.1,0.2-0.5,0.6-1.6,1.5c-0.8,0.6-3,2.5-5,4.1c-4.3,3.7-6,4.9-8.1,6.2c-3.3,1.9-4.7,2.1-8.9,1.1c-2.4-0.5-3.6-0.7-4.7-0.5
		c-0.3,0-10.1,5.6-21.9,12.4l-21.5,12.3l1,1.7c5.9,10.3,12.6,20.2,16.9,25.2l1,1.1l2.8,0.8c3.1,0.9,4.4,1.4,6.7,2.7
		c4.8,2.7,8.5,6.4,11.1,11.1c3.1,5.4,4.4,11.5,3.7,17.8c-0.2,2.1-1.3,6.1-2.1,8.1c-1.8,4.2-4.4,7.9-7.8,10.9
		c-0.7,0.6-0.9,0.7-1.4,0.7c-0.4-0.1-0.5-0.1-0.7-0.5c-0.1-0.2-0.3-0.7-0.3-1.1c-0.1-2.1-1.4-19.4-1.5-20c-0.7-3.4-3.7-6.1-7.2-6.3
		c-1,0-15.3,1-16.4,1.2c-1.2,0.2-3.1,1.3-4,2.2c-1.4,1.5-2.2,3.5-2.2,5.5c0,0.6,0.3,5.6,0.8,11.1c0.8,10.5,0.8,10.6,0.1,10.9
		c-0.5,0.2-0.9,0.1-1.9-0.5c-2-1.2-3.5-2.3-5.1-3.9c-6-5.6-9.3-13.3-9.3-21.4c0-5,1.4-10.1,3.9-14.4l0.5-0.9l-0.3-0.8
		c-0.4-1.1-2.3-5.7-3.4-8.1c-2.1-4.6-7.3-15-7.6-15.1c-0.2-0.1-5.4,0.9-6.7,1.3c-2.5,0.8-6.3,2.9-10.3,5.7
		c-4.6,3.2-9.6,7.1-20.3,16.1c-13.8,11.5-18.9,15.4-23,17.7c-2.1,1.1-2.9,1.4-4.6,1.7c-2.8,0.5-5.5,0.6-8.2,0.2
		C102.9,12489.1,99.7,12488.3,98.4,12487.8z"/>
</g>
<g transform="translate(0.000000,720.000000) scale(0.100000,-0.100000)">
	<path class="st1" d="M384.9,7138.2c-1.7-3.3-1.7-3.3-2.4-3.1c-0.4,0.1-1.3,0.4-2.1,0.7l-1.4,0.5l0.3,2.4l0.2,2.4l-0.9,0.3
		c-0.5,0.2-1.2,0.4-1.5,0.4l-0.6,0.1l-0.9-2.5l-0.9-2.5l-2.1,0.3l-2.1,0.3l-0.1,2.7c-0.1,1.5-0.2,2.7-0.3,2.7c-0.1,0-0.8,0-1.5,0.1
		s-1.3,0-1.4-0.1s-0.3-1.3-0.6-2.5c-0.3-1.3-0.5-2.3-0.7-2.4c-0.6-0.2-4.1,0-4.1,0.2s-0.2,1.3-0.5,2.5c-0.2,1.3-0.5,2.3-0.6,2.4
		c-0.4,0.2-2.8-0.1-2.9-0.3c0-0.1-0.1-1.3-0.2-2.6l-0.1-2.4l-0.5-0.1c-3-0.5-3.6-0.5-3.8-0.2c-0.1,0.2-0.5,1.3-0.9,2.4
		c-0.4,1.2-0.7,2.1-0.8,2.2c-0.1,0-0.8-0.1-1.5-0.2l-1.4-0.3l0.2-2.5c0.1-1.4,0.2-2.6,0.2-2.6c0-0.1-0.9-0.4-2-0.7l-2-0.6l-0.8,1.5
		c-0.4,0.8-1,1.9-1.2,2.3l-0.4,0.8l-1.3-0.4c-0.7-0.2-1.4-0.5-1.4-0.6c-0.1-0.2,0.5-3,1-4.9c0-0.2-0.7-0.6-1.9-1.1l-2-0.8l-1.4,2.1
		c-0.8,1.1-1.5,2.1-1.6,2.1s-0.7-0.2-1.4-0.6l-1.2-0.6l0.4-1.1c0.2-0.6,0.7-1.7,0.9-2.5l0.5-1.4l-1.7-1c-0.9-0.6-1.8-1-2-1
		s-1,0.9-1.9,1.9s-1.6,1.8-1.7,1.8c-0.7-0.3-2.5-1.8-2.4-2c0-0.1,0.6-1.1,1.2-2.1s1.1-2,1.2-2.1c0.1-0.3-2.8-2.7-3.2-2.7
		c-0.2,0-1,0.6-1.9,1.4s-1.8,1.5-1.9,1.6c-0.2,0.2-2-1.3-2.2-1.9c-0.1-0.1,0.6-1.2,1.4-2.3l1.5-2l-1.4-1.6c-0.8-0.9-1.5-1.6-1.5-1.6
		s-1,0.6-2.2,1.3c-1.2,0.7-2.2,1.3-2.3,1.3c-0.1,0-0.5-0.6-1-1.2l-0.9-1.1l1.8-1.7c0.9-0.9,1.8-1.8,1.8-1.9c0.1-0.2-1.1-2.1-2.1-3.4
		c-0.2-0.3-0.4-0.3-2.6,0.8l-2.4,1.1l-0.5-0.9c-0.3-0.5-0.6-1.1-0.8-1.3c-0.3-0.5-0.2-0.5,1.8-2l2.1-1.6l-0.9-1.9
		c-0.5-1-0.9-1.9-0.9-1.9s-0.9,0.2-1.9,0.5s-2.2,0.6-2.5,0.7l-0.7,0.2l-0.6-1.4l-0.6-1.4l0.6-0.4c0.3-0.2,1.3-0.8,2.3-1.3
		c0.9-0.5,1.7-0.9,1.7-1s-0.3-1-0.7-2l-0.8-2l-2.6,0.4c-2.5,0.3-2.6,0.3-2.7-0.2c-0.1-0.3-0.2-1-0.4-1.5l-0.3-1l2.5-0.9
		c2.3-0.8,2.5-0.9,2.4-1.3c-0.2-1.6-0.7-3.8-0.9-3.9c-0.1,0-1.3-0.1-2.7-0.1h-2.5l-0.2-1.4c-0.1-0.8-0.1-1.5-0.1-1.5
		c0.1-0.1,3.8-1.1,4.8-1.2c0.3,0,0.3-0.6,0.3-2.2l-0.1-2.2l-2.3-0.3c-1.3-0.2-2.5-0.4-2.7-0.4c-0.2-0.1-0.3-0.5-0.2-1.5
		c0-0.8,0.1-1.5,0.1-1.5c0-0.1,0.9-0.2,2-0.2c3.5-0.2,3.2,0,3.4-2.4c0.1-1.1,0.2-2.1,0.2-2.1c0-0.1-4.1-1.3-4.8-1.5
		c-0.2,0-0.1-0.7,0.3-2.9c0-0.1,1.2-0.2,2.5-0.1c1.4,0.1,2.5,0.1,2.7,0c0.1-0.1,0.4-1,0.7-2.1l0.5-1.9l-2.4-1.1l-2.4-1.1l0.4-1.3
		c0.2-0.7,0.5-1.4,0.6-1.4s1.3,0.1,2.6,0.4l2.5,0.5l0.8-2l0.8-2l-2.2-1.4c-1.2-0.7-2.2-1.5-2.2-1.7s0.3-0.8,0.6-1.4
		c0.6-1,0.7-1.1,1.1-1c0.2,0.1,1.4,0.5,2.5,0.8l2,0.7l1-1.8c0.6-1,1-1.9,1-1.9c0-0.1-0.9-0.8-2-1.7l-1.9-1.7l0.7-1.2
		c0.4-0.6,0.8-1.2,0.9-1.2s1.1,0.4,2.1,0.9c1.1,0.5,2.1,1,2.3,1.1c0.3,0.1,0.8-0.3,2.6-2.8l0.3-0.4l-1.6-1.8c-0.9-1-1.7-1.9-1.7-2
		c-0.1-0.2,1.4-2.1,1.8-2.2c0.1,0,1,0.5,2.1,1.3c1,0.7,2,1.4,2.1,1.5c0.2,0.1,2.8-2.2,3.1-2.7c0.1-0.1-0.4-1-1.2-2.2
		c-0.7-1.1-1.3-2.1-1.4-2.2c0-0.1,0.3-0.6,0.8-1s1-0.8,1.1-0.9c0.2-0.1,0.9,0.4,2.2,1.6l2,1.8l1.7-1.3l1.7-1.3l-1.1-2.3l-1.1-2.4
		l0.5-0.4c0.3-0.2,0.9-0.6,1.4-0.8l0.9-0.4l1.5,1.9l1.5,1.9l1.3-0.6c0.7-0.3,1.6-0.8,1.9-1c0.6-0.4,0.6-0.4-0.5-3.9l-0.5-1.6
		l1.4-0.6l1.4-0.6l1.3,2.2c0.7,1.2,1.4,2.2,1.5,2.3c0.1,0.1,1.1-0.3,2.1-0.7l1.8-0.8l-0.4-2.4c-0.2-1.3-0.4-2.5-0.3-2.6
		c0-0.1,0.7-0.4,1.4-0.6l1.3-0.4l1.1,2.5l1.1,2.5l2.1-0.5l2.1-0.5v-0.6c0-0.3-0.1-1.4-0.1-2.4s0-1.9,0-2c0.1-0.2,2.2-0.7,2.7-0.6
		c0.2,0,0.4,0.9,0.9,2.5c0.4,1.4,0.7,2.5,0.7,2.5c0.1,0,1.1,0,2.2-0.1l2.1-0.2l0.3-2.5c0.1-1.4,0.3-2.6,0.3-2.6
		c0.1-0.1,2.7-0.2,2.9-0.1c0.1,0,0.2,1.1,0.4,2.4c0.2,1.3,0.3,2.5,0.4,2.6c0.1,0.3,4.2,0.5,4.3,0.3c0-0.1,0.4-1.3,0.7-2.6l0.6-2.4
		l1.5,0.2c0.8,0.1,1.5,0.2,1.5,0.2s0,1.2,0,2.7c0,1.4,0,2.6,0,2.7c0.9,0.2,4,0.8,4.1,0.7c0.1,0,0.6-1.1,1.1-2.4l1-2.4l1.1,0.3
		c1.8,0.4,1.8,0.3,1.4,3.2l-0.4,2.6l1.7,0.6c0.9,0.3,1.9,0.6,2,0.7c0.2,0,0.8-0.7,1.6-2.1c0.7-1.2,1.4-2.2,1.5-2.2s0.8,0.2,1.5,0.6
		l1.2,0.6l-0.6,2c-0.3,1.1-0.7,2.3-0.7,2.5c-0.1,0.5-0.1,0.5,2.8,2l0.9,0.4l1.6-2.1l1.6-2.1l0.8,0.5c1.9,1,1.9,0.9,0.7,3.5
		c-0.7,1.6-1,2.4-0.8,2.6c0.1,0.1,0.9,0.7,1.7,1.3l1.5,1.1l1.8-1.8c1-1,1.9-1.8,1.9-1.8c0.2-0.1,2.5,1.8,2.4,1.9c0,0-0.7,1-1.4,2.2
		c-0.8,1.2-1.4,2.2-1.3,2.3c0,0.1,0.7,0.8,1.5,1.5l1.5,1.4l1.1-0.8c0.6-0.4,1.6-1.1,2.1-1.5s1-0.7,1.1-0.7s0.5,0.5,1.1,1.1l1,1.1
		l-1.7,1.9c-0.9,1.1-1.7,2-1.6,2.2c0.1,0.3,2.4,3.1,2.5,3.1s1.1-0.5,2.3-1.1c1.2-0.6,2.3-1.1,2.4-1.1c0.2,0.1,1.7,2.3,1.7,2.4
		c0,0-0.9,0.8-2,1.8c-1.3,1.1-1.9,1.8-1.8,1.9s0.6,1,1.1,1.9l0.9,1.6l2.4-0.8c1.4-0.5,2.5-0.8,2.5-0.8c0.1,0,0.4,0.6,0.7,1.4
		l0.6,1.3l-1.3,0.8c-0.7,0.4-1.7,1.1-2.2,1.4l-0.9,0.6l0.8,2l0.8,2l1.1-0.2c0.6-0.1,1.7-0.4,2.6-0.5l1.5-0.3l0.5,1.4
		c0.3,0.7,0.5,1.4,0.5,1.4s-1.1,0.6-2.4,1.2c-1.5,0.7-2.3,1.2-2.3,1.3c0,0.1,0.3,1,0.5,2l0.5,1.8h1.2c0.6,0,1.8-0.1,2.7-0.2
		c1-0.1,1.5,0,1.5,0.2s0.1,0.7,0.2,1.2c0.4,1.5,0.4,1.5-2.3,2.3c-1.3,0.4-2.4,0.8-2.5,0.8c0,0.2,0.3,3.8,0.4,4
		c0,0.1,1.3,0.3,2.7,0.4l2.6,0.2l0.1,1.2c0.1,2,0.3,1.8-2.6,2.3c-1.4,0.2-2.6,0.4-2.6,0.4c0,0.4-0.1,4.1,0,4.2
		c0,0.1,1.2,0.4,2.5,0.7c1.3,0.3,2.5,0.5,2.5,0.6c0.1,0-0.2,2.7-0.2,3c0,0.1-1.2,0.1-2.7,0.2h-2.6l-0.3,2c-0.2,1.1-0.3,2.1-0.3,2.1
		s1.1,0.6,2.4,1c1.3,0.5,2.3,0.9,2.4,1c0.1,0.3-0.5,2.7-0.7,2.8c-0.1,0-1.3,0-2.6-0.2c-1.3-0.2-2.5-0.2-2.5-0.1
		c-0.1,0.1-0.4,1-0.7,2c-0.4,1.3-0.5,1.9-0.3,2c0.1,0.1,1.2,0.6,2.3,1.2l2,1.1l-0.4,1.2c-0.2,0.7-0.5,1.3-0.6,1.4
		c-0.2,0.1-1.2,0-2.7-0.4c-1.3-0.3-2.5-0.6-2.6-0.5s-0.5,0.9-1,1.9l-0.8,1.8l2,1.5c1.1,0.8,2.1,1.6,2.1,1.6c0,0.1-0.3,0.7-0.6,1.4
		l-0.7,1.2l-2.4-1c-1.3-0.5-2.4-1-2.5-0.9c-0.1,0-2,2.7-2.4,3.4c0,0,0.8,0.9,1.9,1.9c1,1,1.9,1.9,1.9,1.9c-0.1,0.3-1.6,2.2-1.8,2.2
		c-0.1,0-1.2-0.5-2.4-1.2c-1.2-0.7-2.2-1.3-2.3-1.3c-0.3,0.1-2.7,3.1-2.7,3.3c0,0.1,0.8,1,1.6,2.1c0.8,1,1.5,1.9,1.4,2
		c-0.1,0.3-2,2-2.2,2c-0.1,0-1.1-0.8-2.1-1.7c-1.2-1-2-1.5-2.2-1.4c-0.1,0.1-0.8,0.7-1.6,1.4c-1.6,1.4-1.6,1.1,0,3.9
		c0.7,1.3,1,1.9,0.9,2.1c-0.3,0.4-2.1,1.6-2.4,1.5c-0.1,0-0.9-0.8-1.8-1.8c-0.9-0.9-1.6-1.7-1.7-1.7c-0.1-0.1-1,0.4-1.9,1l-1.7,1.1
		l1,2.5l1,2.5l-1.2,0.7c-0.7,0.4-1.3,0.6-1.4,0.6c-0.1-0.1-0.8-1-1.6-2.1l-1.4-2l-1.9,0.7c-1,0.4-1.9,0.8-2,1c0,0.1,0.2,1.3,0.5,2.7
		l0.6,2.4l-1.4,0.6l-1.4,0.6L384.9,7138.2z M369.2,7084.1c3.1-2.2,4.5-6,3.7-9.8c-1.1-4.9-6.2-8-11.3-6.8c-4.8,1.1-8,6.3-6.8,11.3
		c1.1,4.6,5.9,7.7,10.7,6.9C367.1,7085.3,367.8,7085,369.2,7084.1z"/>
	<path class="st1" d="M511,7087.7c-0.1-0.1-0.7-1.1-1.2-2.3c-0.6-1.1-1.1-2.1-1.2-2.1c-0.2-0.1-3.9,1-4,1.2c0,0.1,0,1.2,0.2,2.6
		l0.2,2.4l-1,0.4c-0.5,0.2-1.2,0.4-1.5,0.4l-0.5,0.1l-0.9-2.5l-0.9-2.5l-0.6,0.1c-0.3,0.1-1.3,0.2-2.1,0.3l-1.5,0.2l-0.1,2.2
		c-0.1,1.2-0.1,2.4-0.1,2.7c0,0.2-0.1,0.5-0.2,0.5c-0.2,0-0.9,0.1-1.5,0.1c-0.7,0.1-1.3,0-1.4-0.1c0-0.1-0.3-1.3-0.5-2.6l-0.5-2.4
		h-2.2c-1.2,0-2.2,0.1-2.2,0.1s-0.2,1.2-0.5,2.5s-0.5,2.5-0.6,2.5c-0.3,0.1-2.8-0.1-2.8-0.3c0-0.1-0.1-1.3-0.2-2.6l-0.1-2.5
		l-0.5-0.1c-0.3,0-1.2-0.2-2.1-0.3l-1.6-0.2l-0.3,0.9c-0.2,0.5-0.6,1.6-0.9,2.5l-0.5,1.6l-1.4-0.3c-0.8-0.1-1.4-0.4-1.5-0.5
		c0-0.1,0-1.3,0.1-2.7l0.3-2.4l-2.1-0.6l-2.1-0.6l-0.9,2c-1.5,3.1-1.2,2.8-2.8,2.3c-0.7-0.2-1.4-0.5-1.4-0.6s0.2-1.3,0.5-2.7
		l0.6-2.5l-2-0.8l-2-0.8l-1.4,2c-0.8,1.1-1.5,2.1-1.6,2.1s-0.8-0.2-1.4-0.6l-1.2-0.7l0.9-2.4c0.5-1.3,0.8-2.5,0.8-2.5
		c-0.4-0.4-3.3-2.1-3.5-2.1c-0.1,0-1,0.9-1.9,1.9s-1.7,1.8-1.7,1.8c-0.7-0.4-2.5-1.8-2.4-2c0.4-0.6,2.4-4.3,2.4-4.4
		c-0.1-0.4-3.1-2.7-3.3-2.6c-0.2,0.1-3.1,2.5-3.8,3.1c-0.2,0.2-2.1-1.5-2.3-1.9c0-0.1,0.6-1.1,1.5-2.3l1.5-2.1l-1-1.1
		c-1.9-2.1-1.9-2.1-2.3-1.8c-0.6,0.4-3.7,2.3-3.9,2.4c-0.3,0.1-2-2.1-1.9-2.4c0.1-0.1,0.8-0.9,1.7-1.8c0.9-0.8,1.6-1.6,1.7-1.7
		s-0.4-1-1-1.9l-1.1-1.7l-2.4,1l-2.4,1l-0.4-0.5c-0.2-0.3-0.6-0.9-0.8-1.3l-0.4-0.8l2-1.5l2-1.5l-0.9-1.9c-0.5-1.1-0.9-1.9-0.9-1.9
		s-0.9,0.2-1.9,0.5s-2.2,0.6-2.5,0.7l-0.7,0.2l-0.6-1.4l-0.6-1.4l0.6-0.4c0.3-0.2,1.3-0.8,2.3-1.3c0.9-0.5,1.7-1,1.7-1s-0.3-1-0.7-2
		l-0.7-2l-2.5,0.3c-1.8,0.2-2.6,0.2-2.6,0s-0.3-0.8-0.4-1.5l-0.3-1.2l2.5-1l2.5-1l-0.4-2c-0.2-1.1-0.5-2-0.6-2.1
		c-0.1,0-1.3-0.1-2.6-0.1c-1.3,0-2.4-0.1-2.5-0.2c-0.2-0.6-0.4-2.8-0.2-2.9c0.2-0.1,3.7-0.9,4.5-1c0.3-0.1,0.4-0.2,0.4-0.7
		c0-0.3,0-1.3-0.1-2.1v-1.6l-2.6-0.4c-1.4-0.2-2.6-0.5-2.6-0.6c-0.1-0.1,0-2.9,0-2.9s1.1-0.1,2.5-0.2s2.5-0.2,2.7-0.3
		c0.2-0.1,0.6-3.8,0.5-4.2c0-0.1-4.1-1.3-4.8-1.5c-0.2,0,0.1-2.3,0.3-3.1c0,0,1.1,0,2.5,0.1s2.6,0.1,2.7,0.1c0.2-0.1,1.1-3.9,1-4
		c0-0.1-1.1-0.6-2.4-1.2l-2.3-1.1l0.5-1.5l0.5-1.4l2.6,0.5l2.6,0.5l0.8-2l0.8-2l-2.2-1.3c-1.2-0.7-2.2-1.4-2.2-1.5s0.2-0.7,0.6-1.4
		c0.8-1.4,0.4-1.4,3.6-0.3l2.1,0.7l0.7-1.4c0.4-0.7,0.9-1.6,1.1-1.9l0.3-0.5l-2-1.7l-2-1.7l0.4-0.7c0.2-0.4,0.6-1,0.8-1.3l0.4-0.6
		l1.5,0.7c0.8,0.4,1.9,0.9,2.4,1.2l0.9,0.4l1-1.3c0.5-0.7,1.1-1.5,1.3-1.7l0.3-0.5l-1.7-1.8c-0.9-1-1.7-1.9-1.7-2s0.4-0.6,0.9-1.2
		c1.1-1.2,0.9-1.3,3.5,0.5c1,0.7,1.8,1.3,1.8,1.3c0.1,0,0.8-0.6,1.6-1.4l1.6-1.5l-1.4-2c-0.8-1.1-1.4-2.1-1.5-2.2
		c0-0.1,0.4-0.6,0.9-1s1.1-0.9,1.2-1s0.3,0,0.5,0.2s1,1,1.9,1.8l1.6,1.5l1.7-1.3l1.7-1.3l-1.1-2.4l-1.1-2.3l0.5-0.4
		c0.3-0.2,0.9-0.5,1.4-0.7c0.7-0.3,0.9-0.3,1.2,0.1c0.2,0.2,0.9,1.1,1.6,2l1.3,1.5l1.3-0.7c2.2-1.1,2.4-1.3,2.2-1.9
		c-0.1-0.3-0.4-1.5-0.8-2.5l-0.7-2l1.4-0.6l1.4-0.6l1.4,2.3l1.4,2.3l2-0.8l2-0.8l-0.4-2.4c-0.3-1.3-0.4-2.5-0.4-2.6
		c0-0.2,0.5-0.4,1.4-0.7l1.4-0.4l1,2.4c1.1,2.8,0.7,2.6,3.6,1.9c0.9-0.2,1.6-0.4,1.7-0.5c0-0.1,0-1.2,0-2.4c-0.1-1.2-0.1-2.4,0-2.5
		c0.1-0.2,2.1-0.7,2.7-0.6c0.3,0.1,0.5,0.5,1,2.5c0.4,1.3,0.7,2.5,0.7,2.5c0.1,0,1,0,2.2-0.1l2.1-0.2l0.2-2.2
		c0.3-3.3,0.2-3.1,1.8-3.1c0.8,0,1.4,0,1.5,0s0.2,1.2,0.4,2.6c0.2,1.4,0.3,2.6,0.4,2.6c0.2,0.1,4,0.3,4.1,0.3s0.4-1.1,0.7-2.5
		c0.3-1.3,0.7-2.5,0.8-2.5c0.2-0.1,2.8,0.2,2.9,0.3c0,0,0,1.1,0,2.4s0,2.5,0,2.6c0.1,0.2,3.7,1.1,4,1c0.1,0,0.6-1.1,1.2-2.5l1-2.4
		l1.3,0.4c0.8,0.2,1.4,0.5,1.4,0.6s-0.1,1.3-0.3,2.7l-0.4,2.5l1.4,0.5c0.8,0.3,1.7,0.6,2.1,0.7l0.6,0.2l1.3-2.2
		c0.7-1.2,1.3-2.2,1.4-2.2c0.1,0,0.6,0.1,1.1,0.3c1.8,0.8,1.7,0.6,0.9,3.3l-0.7,2.5l1.8,1c1,0.6,1.9,1,2,0.9s0.8-1,1.7-2.1l1.6-2
		l1.3,0.8l1.3,0.8l-1.1,2.4l-1.1,2.4l1.7,1.3l1.7,1.2l1.8-1.7c1-1,1.9-1.8,2-1.8c0.2-0.1,2.4,1.8,2.3,2c-2.6,3.9-2.7,4.2-2.4,4.5
		c0.1,0.2,0.8,0.9,1.6,1.5c1,0.9,1.4,1.1,1.6,1c0.7-0.5,3.1-2.3,3.6-2.6c0.4-0.2,0.6-0.1,1.4,0.8c0.5,0.6,1,1.1,1,1.1
		c0,0.1-0.8,0.9-1.7,2c-0.9,1-1.7,1.9-1.7,2s0.6,0.9,1.3,1.8l1.3,1.7l1.3-0.7c0.7-0.4,1.7-0.9,2.3-1.2l1.1-0.6l0.5,0.7
		c0.3,0.4,0.7,0.9,0.9,1.2l0.4,0.6l-2,1.8l-2,1.8l1.1,1.8l1.1,1.8l2.4-0.8c1.3-0.5,2.5-0.8,2.6-0.8s0.4,0.6,0.7,1.4l0.6,1.3
		l-2.1,1.4c-1.1,0.7-2.1,1.4-2.1,1.4s0.3,0.9,0.8,2s0.8,2,0.9,2c0,0,1.1-0.2,2.5-0.5l2.5-0.5l0.5,1.3c0.3,0.7,0.5,1.4,0.5,1.4
		c0,0.1-1.1,0.6-2.4,1.3l-2.3,1.1l0.5,2l0.5,2.1l2.4-0.2c1.3-0.1,2.5-0.1,2.7-0.1c0.3,0,0.4,0.3,0.5,1.4c0.1,0.7,0.2,1.4,0.2,1.5
		s-1.1,0.5-2.5,0.9c-1.3,0.4-2.4,0.8-2.5,0.9c-0.1,0.2,0.4,4.2,0.5,4.2s1.2,0.1,2.6,0.2c1.4,0.1,2.5,0.2,2.6,0.2
		c0,0,0.1,0.5,0.1,1.1s0,1.3,0,1.5c0,0.3-0.2,0.4-2.2,0.7c-1.2,0.2-2.4,0.4-2.6,0.4c-0.3,0-0.4,0.4-0.5,1.8
		c-0.1,2.8-0.3,2.5,2.3,3.1c1.3,0.3,2.4,0.5,2.6,0.6c0.4,0.1,0,3-0.4,3.1c-0.2,0-1.4,0-2.7,0.1h-2.3l-0.3,2.1l-0.3,2.1l2.5,0.9
		l2.5,0.9l-0.4,1.5l-0.4,1.5l-2.6-0.3c-1.4-0.2-2.6-0.3-2.6-0.3c-0.1,0-0.4,0.9-0.7,2l-0.6,2l2.3,1.2c2.5,1.4,2.4,1.2,1.7,3
		c-0.2,0.5-0.4,0.9-0.5,0.9s-1.3-0.2-2.6-0.6c-2.7-0.7-2.4-0.9-3.6,1.7l-0.7,1.5l2,1.5c1.1,0.8,2.1,1.6,2.1,1.7s-0.2,0.7-0.6,1.4
		l-0.7,1.2l-2.4-1c-1.3-0.5-2.4-1-2.5-0.9c-0.3,0.1-2.3,3.3-2.2,3.6c0.1,0.1,0.9,1,1.8,1.9c0.9,0.9,1.7,1.7,1.7,1.7
		c-0.2,0.4-1.6,2.2-1.7,2.2c-0.1,0-1.2-0.5-2.4-1.2s-2.2-1.3-2.3-1.3s-2.6,2.9-2.7,3.1c0,0.1,0.7,1,1.5,2.1c1.8,2.3,1.7,2.2,1.4,2.4
		c-0.1,0.1-0.6,0.6-1.1,1l-0.9,0.8l-1.1-0.9c-0.6-0.5-1.5-1.2-2.1-1.6l-1-0.8l-1.6,1.3c-0.9,0.7-1.6,1.4-1.6,1.4s0.5,1.1,1.2,2.3
		c0.9,1.5,1.2,2.3,1.1,2.4c-0.3,0.4-2.1,1.6-2.4,1.5c-0.1,0-0.9-0.8-1.7-1.8c-0.9-0.9-1.6-1.7-1.7-1.7c-0.1-0.1-0.9,0.4-1.9,1
		l-1.8,1.1l1,2.5l1,2.5l-1.2,0.7c-0.9,0.5-1.3,0.6-1.5,0.5c-0.1-0.1-0.9-1.1-1.6-2.1l-1.3-2l-2,0.9l-2,0.9l0.6,2.6l0.6,2.6l-1.3,0.6
		C511.7,7087.7,511.2,7087.8,511,7087.7z M494.2,7032.6c3.5-2.2,5.1-6.8,3.8-10.6c-0.9-2.7-2.7-4.7-5.2-5.8
		c-6-2.5-12.6,1.6-12.9,8.2c-0.1,1.4,0,1.7,0.9,3.8c0.9,2.1,1,2.3,2.1,3.3c1.7,1.5,3.5,2.3,5.5,2.4
		C490.9,7034.2,492.4,7033.8,494.2,7032.6z"/>
</g>
<g transform="translate(0.000000,1112.000000) scale(0.100000,-0.100000)">
	<path class="st1" d="M737.2,11009.1c-5.4-0.4-10.4-1.2-15.7-2.6c-1.1-0.3-2.1-0.5-2.3-0.6c-0.2,0-0.4-0.1-0.4-0.2
		c0-0.2,1.1-0.2,1.8-0.1c1.6,0.4,4.1,0.5,6.2,0.4c7.5-0.7,15.6-3.9,22.4-8.9c2.1-1.5,5.5-5,6.7-6.8c1.5-2.3,2.3-4.1,2.5-6.4
		c0.2-2.1-0.1-3.6-1.2-5.9l-0.7-1.5v-1.6c0-1,0.1-1.9,0.2-2.4c0.2-0.8,0.9-2.3,1.3-2.7c0.2-0.2,0.2-0.3-0.3-0.7
		c-0.3-0.3-7.1-6.5-15.2-13.9l-14.7-13.4l-11.1,9.6c-6.1,5.3-11.3,9.8-11.5,10l-0.4,0.3l0.6,2.6c2,8.2,5.5,22.2,5.5,22.4
		s-1,0.8-4.1,2.7c-14.4,8.6-26,15.5-28.2,16.8c-0.9,0.6-1.8,1.1-1.9,1.1c-0.1,0-5.1-4.5-9.1-8.2l-1-0.9l7.5-6.9
		c9.5-8.7,11.1-10.2,11.9-10.9l0.7-0.6l-0.9-2.8c-0.5-1.5-1-3.1-1.1-3.6c-0.5-1.7-1.7-5.4-1.8-5.8c-0.1-0.3-0.6-0.5-6.9-2.1
		c-6.5-1.7-6.8-1.8-7.1-1.5c-0.1,0.1-4.7,4.3-10.1,9.2l-9.8,9l-0.4-0.3c-5.4-4.9-8.7-8-8.8-8.2c0-0.1,2.1-3,5.3-7.1
		c5.5-7.1,9.4-12.2,14.8-19.2c1.7-2.2,3.1-4,3.3-4s1.1,0.2,4.7,0.8c0.7,0.1,2,0.4,2.9,0.5s2.3,0.4,3.2,0.6c0.9,0.1,2.3,0.4,3.2,0.6
		s2.4,0.4,3.3,0.6s2.4,0.4,3.3,0.6c0.9,0.2,2.4,0.4,3.4,0.6c0.9,0.2,2,0.4,2.4,0.4l0.7,0.1l1.8-1.7c1.8-1.7,13.6-13.2,14.6-14.2
		l0.5-0.5l-6.2-5.5c-3.4-3-10.3-9.1-15.3-13.5s-11.9-10.5-15.4-13.5c-12.8-11.2-17.5-15.4-20.8-18.3c-1.8-1.6-3.7-3.3-4.1-3.8
		c-1.7-1.8-2.2-3.9-1.5-5.9c0.4-1.1,0.9-1.9,2-3.1c0.9-1,12.9-12,14.1-12.9c1-0.8,2.8-1.6,4.2-2.1c0.9-0.3,1.4-0.3,2.8-0.3
		c2,0,2.8,0.2,4.2,1c0.9,0.5,2.1,1.7,20.8,19.8c3.2,3.1,7,6.7,8.4,8.1c2.4,2.3,4.2,4,16.8,16.2c9,8.7,12.3,11.9,12.4,11.9
		c0.1,0,11.6-11.2,20.2-19.7c1.8-1.7,7.1-6.9,11.8-11.5s11.2-11,14.5-14.2c10.1-9.8,10.6-10.3,11.6-11c1.9-1.4,3.4-2.1,5.6-2.7
		c1.6-0.4,4.9-0.5,6.5-0.1c3.6,0.9,6.8,2.9,9,6c0.8,1,1.9,3.3,2.2,4.6c1,4-0.2,8-3.4,11.2c-0.9,0.9-51.4,44.7-62.3,54.2
		c-1.9,1.6-3.4,3-3.4,3.1s3.9,3.7,8.7,8.1c4.8,4.4,11.5,10.5,14.9,13.7l6.2,5.7l1.1-0.8c1.3-0.9,2.8-1.6,4.1-2
		c1.4-0.4,4.5-0.4,6.4,0.1c1.8,0.4,2.9,0.4,4.4,0c2.8-0.7,4.9-2.4,9.1-7.2l1.7-2l-1.4-1.4c-1.1-1.1-1.5-1.5-1.9-2.4
		c-0.5-1-0.5-1.1-0.5-2.5c0-1.2,0.1-1.6,0.4-2.4c0.8-1.9,2.3-3.6,4.3-4.5c1.4-0.6,2.3-0.8,3.8-0.8c1.6,0,2.7,0.3,3.9,1.1
		c0.7,0.5,12.7,11.4,13.9,12.6c1.9,2,2.1,5.1,0.6,7.6c-0.8,1.3-2.3,2.7-3.6,3.3c-1.5,0.7-2.1,0.9-3.8,0.9c-1.5,0-2.3-0.2-3.6-0.8
		l-0.5-0.3l-0.4,0.3c-0.7,0.6-2.8,3.2-3.6,4.5c-0.5,0.7-1.6,2.7-2.4,4.4c-1.8,3.6-2.1,4.2-3.3,5.9c-1.4,2-4.6,5.7-6.1,7.1
		c-1.6,1.5-7.3,6.8-8.5,7.9c-1.9,1.8-11.9,11.1-12.7,11.9c-1.4,1.3-3.3,2.7-5.3,4.1c-6,4-12.3,6.3-20.3,7.3
		C746.2,11009,739,11009.2,737.2,11009.1z M799.5,10868.8c1.3-0.4,2.6-1.3,3.3-2.3c0.8-1.1,1.1-2,1.1-3.5c0-1.1,0-1.3-0.5-2.3
		c-0.9-1.9-2.5-3-4.8-3.5c-1.5-0.3-2.9-0.1-4.4,0.6c-1.2,0.6-1.7,1.1-2.1,2.1c-0.9,2.5-0.2,5.9,1.4,7.8c0.7,0.8,1.5,1.2,2.7,1.4
		C797.5,10869.2,798.3,10869.1,799.5,10868.8z"/>
</g>
<g transform="translate(0.000000,1280.000000) scale(0.100000,-0.100000)">
	<path class="st1" d="M292.7,12529.9c-3,0-7.3-4.9-12.5-14.5c-5.9-10.6-12.5-25.7-25.4-57.3c-4.4-10.8-8.3-20.5-8.6-21.4
		c-1.5-4.2-2.1-7.2-3.1-13.5c-0.8-5.4-1.2-6.6-3.9-12.9c-8.4-19.2-13.4-28.8-25.6-49.9c-8.6-14.9-9.6-16.6-12-22.5
		c-2.3-5.5-3.2-8.7-3.7-13.3c-0.3-2.6-0.1-4.1,0.7-6c1.1-2.7,2.7-4.2,5.3-5.3c3.5-1.5,7.6-1,10.3,1.3c1.1,1,2.8,3.1,4.6,6.2
		c1.1,1.8,1.7,3,3.1,6.5c2.2,5.2,2.7,6.9,6.9,22.3c4.1,15.1,7,24.4,11.5,36.9c2.2,6,6.6,17.6,8.6,22.3s2.3,5.2,8.9,11.2
		c5.8,5.4,7.5,7.1,10.1,10.3c1.8,2.3,3.7,5.1,5.2,7.8c2,3.6,7.3,16.6,11.1,27.3c8.5,24.4,13.3,44.2,13.2,55.1
		C297.2,12526.1,295.4,12529.9,292.7,12529.9z"/>
	<path class="st1" d="M382.1,12444.1c-2.5,0.5-5.6,0-8.8-1.3c-9.1-3.5-19-13.4-25.9-25.7c-6.9-12.5-8.2-19.8-4.8-28.1
		c1.1-2.8,2.4-4.9,5.2-8.9c1.9-2.7,2.7-4.3,2.8-5.4c0-0.7-0.2-1.2-2.6-6.7c-8.1-18.6-13.2-28.5-26.5-51.8
		c-3.4-5.9-6.8-11.9-7.6-13.4c-4.4-8.4-6.6-14-7.8-19.7c-0.9-4.6-0.9-7,0.1-9.5c1.1-2.5,2.6-4.1,5.5-5.3c3.3-1.4,7.1-1,9.8,1
		c2.7,2,6.5,8.4,9.4,16.1c2,5.3,3.3,9.2,7.6,24.1c5.6,19.1,7.8,26,11.6,36.8c0.7,1.9,1.5,4.2,1.7,4.9c0.3,0.8,2,5.3,3.9,10.1
		c2.4,6.3,3.5,8.9,3.9,9.4c0.9,1.2,2.6,1.7,7.4,2.3c5.5,0.6,9.2,1.6,11.9,3.1c5.3,2.9,8.6,7.3,11.6,15.1c3.6,9.6,5.4,18.6,5.3,27.2
		C395.8,12432.2,390.2,12442.6,382.1,12444.1z"/>
	<path class="st1" d="M315.9,12467.7c-3.4-2.5-18.7-31.9-23.5-45.2c-1.4-3.9-1.8-5.2-1.9-7c-0.2-2.7,0.3-4.6,2.4-9.9
		c2.3-5.7,2.7-7.9,2-10.9c-0.4-2.1-6.4-15.5-11.3-25.6c-4.9-9.9-8.6-16.8-16.9-31c-7.8-13.3-8.8-15.1-11.5-21.6
		c-2.6-6.4-3.4-9.1-4.2-14.8c-0.8-5.2,1.7-9.3,6.5-10.9c2.6-0.9,5.4-0.8,7.8,0.3c1.6,0.7,2.6,1.6,4,3.5c3,4,5.2,8.1,7.6,14.2
		c2.3,5.9,2.9,8,7.2,23.3c6.4,23.1,10.8,36.3,17.7,53.2c2.1,5.2,2.5,5.9,3.1,6.7c1.3,1.5,2.6,2.4,5.9,3.7c5.2,2.1,7.2,3.2,9.7,5.5
		c2.7,2.5,3.8,4.4,7.6,13.6c4.4,10.6,8.9,24.1,11.8,35.6c2.7,10.7,1.7,9.9-4.4-3c-1.4-3-3.4-7.3-4.4-9.5c-4.1-8.7-6.8-13.9-8.6-16.3
		c-1-1.4-1.6-1.8-2.1-1.6c-1.3,0.5,0.3,6.2,5.8,20.6c6.3,16.5,7.5,20.3,6.7,20.6c-0.5,0.2-2.3-3-5.4-9.7c-8-17.1-9-19.4-11.1-23
		c-2.5-4.4-4.1-6-4.8-4.8c-0.5,0.8,0,3.7,1.5,8.5c0.4,1.2,2.6,7,5,13.1c5.9,15,7.3,19,6.7,19.2c-0.7,0.3-2.8-3.5-8.9-16.1
		c-7.5-15.7-10.4-20.8-12-21.5l-0.5-0.2l-0.2,0.6c-0.8,1.8,1.1,7.7,8.7,26.9c3.6,9,5,12.9,4.9,13.5
		C316.7,12468.1,316.5,12468.1,315.9,12467.7z"/>
</g>
<g transform="translate(0.000000,1280.000000) scale(0.100000,-0.100000)">
	<path class="st1" d="M797.8,12526.2c-1.2-4.5-4.6-17-4.7-17c0,0-1-0.2-2.1-0.5s-3.1-0.8-4.4-1.2l-2.4-0.7l-6.5,6.5
		c-6,6-6.5,6.5-7,6.3c-0.4-0.2-20.3-11.7-20.5-11.8c0,0,1-4,2.3-8.9l2.4-8.8l-3.3-3.3c-1.8-1.8-3.4-3.3-3.5-3.3s-4.1,1-8.9,2.3
		c-4.8,1.3-8.7,2.3-8.7,2.3c-0.2-0.2-12-20.6-12-20.7c0-0.1,2.9-3,6.5-6.6l6.5-6.4l-0.7-2.5c-0.4-1.4-0.9-3.3-1.2-4.3
		c-0.6-2.8-0.3-2.5-3.8-3.4c-1.7-0.4-5.6-1.4-8.7-2.2l-5.6-1.5v-12.1v-12.1l4.4-1.1c2.4-0.6,6.3-1.6,8.7-2.2
		c2.3-0.6,4.3-1.1,4.4-1.2s0.5-1.5,0.9-3.2s1-3.8,1.3-4.7l0.5-1.6l-6.5-6.4c-3.6-3.5-6.5-6.5-6.5-6.5c0-0.2,11.6-20.3,11.9-20.6
		c0.1-0.1,4.1,0.9,8.9,2.3l8.7,2.5l3.5-3.5l3.5-3.5l-2.4-8.6c-1.3-4.7-2.4-8.7-2.4-8.8s4.3-2.8,9.8-5.9c5.4-3.1,10.1-5.9,10.5-6.1
		l0.6-0.4l6.3,6.5c3.5,3.6,6.4,6.5,6.6,6.6c0.1,0,1.4-0.3,2.8-0.7c1.4-0.4,3.5-1,4.6-1.3c1.3-0.3,2-0.6,2.1-0.8c0-0.2,1-3.8,2.1-8.1
		s2.1-8.1,2.2-8.5l0.2-0.8H810h12.1l0.3,1.2c0.2,0.6,1.2,4.6,2.3,8.8l2,7.7l2,0.4c1.1,0.2,3.2,0.8,4.7,1.3l2.8,0.8l3.1-3.1
		c1.7-1.7,4.6-4.7,6.4-6.6l3.4-3.4l10.4,6c8.1,4.7,10.4,6.1,10.4,6.4c0,0.2-0.8,2.9-1.7,6s-1.6,5.7-1.6,5.8s1.5-2.3,3.2-5.3l3.2-5.5
		l-0.7-1.1c-1.8-2.9-3.3-6.6-4.4-10.2l-0.6-2.2l-5.9-1.5c-3.2-0.8-6.2-1.6-6.6-1.7l-0.6-0.2v-7l0.1-7l6.4-1.6c5.3-1.3,6.5-1.7,6.6-2
		c0.1-0.2,0.4-1.3,0.8-2.5c0.8-2.8,2.2-5.9,3.6-8.5l1.2-2.2l-3.4-5.8l-3.4-5.8l4.6-4.8c2.5-2.6,4.8-4.9,4.9-5
		c0.2-0.2,1.4,0.4,6.1,3.2l5.8,3.4l2.6-1.4c3.1-1.6,5.5-2.6,8.7-3.5l2.4-0.7l1.6-6.5l1.6-6.5h7h7l1.6,6.5l1.6,6.5l2.3,0.7
		c3.1,0.9,5.6,1.9,8.7,3.5l2.5,1.3l5.9-3.4l5.9-3.4l0.7,0.7c0.4,0.4,2.6,2.6,4.9,5l4.2,4.4l-3.4,5.8l-3.4,5.8l0.7,1.2
		c1.6,2.6,3.7,7.6,4.5,10.6c0.4,1.4,0.4,1.5,1.1,1.7c0.4,0.1,3.4,0.9,6.6,1.8l5.9,1.6v7v7l-0.4,0.1c-0.3,0.1-3.2,0.9-6.6,1.8
		l-6.1,1.7l-0.6,2c-1,3.6-2.5,7.1-4.5,10.5l-0.5,0.8l3.4,5.8l3.4,5.8l-4.9,4.9c-3,3-5,4.9-5.2,4.8c-0.2,0-2.8-1.5-5.9-3.3l-5.6-3.2
		l-1,0.6c-2.7,1.7-10.5,4.8-11.9,4.8c-0.3,0-0.4,0.2-0.6,0.8c-0.1,0.4-0.9,3.4-1.8,6.6l-1.6,5.8l-7,0.1h-7l-0.2-0.6
		c-0.1-0.4-0.8-3.1-1.6-6s-1.5-5.6-1.6-5.9c-0.2-0.5-0.3-0.6-1.6-0.9c-2.8-0.7-7.7-2.8-10.9-4.6l-1.1-0.6l-5.7,3.3
		c-3.1,1.8-5.7,3.3-5.8,3.3s-2.3-2.2-4.9-4.8c-2.6-2.6-4.8-4.7-4.9-4.7c-0.1,0-0.4,1-0.7,2.2l-0.6,2.1l3.5,3.4l3.5,3.4l3.6-1
		c11.4-3.1,14-3.8,14.1-3.8c0,0,2.7,4.7,6,10.4l5.9,10.3l-4.3,4.2c-2.4,2.3-5.3,5.2-6.5,6.4l-2.3,2.2l0.6,1.9c0.3,1,0.9,3.1,1.3,4.6
		c0.4,1.5,0.7,2.7,0.8,2.8s4,1.1,8.8,2.4l8.7,2.4v12.1v12.1l-8.7,2.3c-4.8,1.3-8.7,2.4-8.8,2.5s-0.5,1.5-0.9,3.1s-1,3.6-1.2,4.5
		l-0.5,1.6l6.5,6.5l6.5,6.5l-6,10.4c-3.3,5.7-6,10.4-6,10.4s-4.1-1-9-2.4l-8.9-2.4l-3.3,3.3l-3.3,3.3l1.8,6.5c1,3.6,2.1,7.6,2.4,8.9
		c0.4,1.3,0.7,2.4,0.6,2.4c-0.2,0.2-20.8,12-20.9,12s-3-2.9-6.6-6.5l-6.5-6.5l-1.5,0.4c-0.8,0.2-2.8,0.7-4.4,1.1
		c-1.6,0.4-3,0.7-3.1,0.8s-1.1,3.8-2.3,8.2s-2.3,8.4-2.4,8.8l-0.2,0.7H810h-12L797.8,12526.2z"/>
</g>
<g transform="translate(0.000000,907.000000) scale(0.100000,-0.100000)">
	<path class="st1" d="M561.6,8757.1l-0.6-0.8l-7.1-0.1c-3.9,0-7.4-0.1-7.7-0.2c-0.5-0.1-0.5-0.1-0.3,0.1c0.6,0.6,0.2,0.7-2.3,0.5
		c-12.6-0.7-25.1-2.5-35.5-5.1l-3.3-0.8v-1.1v-1.1h-12.2h-12.2l-0.5-0.5c-0.5-0.5-0.5-0.7-0.5-2.3v-1.8h-2.2H475l0.1,1.1
		c0.2,1.4-0.2,2.4-1.1,2.8c-0.5,0.2-2.3,0.2-6.8,0.2l-6.2-0.1l-0.8-0.6c-1.1-0.8-1.9-2.6-2.2-4.9c-0.1-1-0.3-1.9-0.4-2.1
		s-2.2-1.2-4.7-2.4c-6.2-2.8-5.7-2.4-5.7-4v-1.3h-5.8c-5.7,0-5.8,0-6.7-0.5c-0.8-0.5-1.6-1.4-2.2-2.6c-0.2-0.4-0.4-0.2-1.4,1
		c-1.8,2.2-1.5,2.1-6.5,2.1c-4.2,0-4.4,0-5.1-0.5s-2-2-2.2-2.6c-0.1-0.2-0.4,0-1,0.7c-0.5,0.5-1.2,1.3-1.6,1.7l-0.8,0.7h-4.3h-4.3
		l-1.3-0.8l-1.3-0.8l-0.8,0.8c-0.5,0.4-1.1,0.8-1.4,0.8c-0.9,0-2.4-0.9-4-2.5l-1.7-1.6l1-1.1c0.5-0.6,1.5-1.5,2.1-1.8l1.1-0.7h4.3
		c4.2,0,4.3,0,4.9,0.5c0.4,0.3,0.8,0.8,0.9,1.1l0.3,0.6l1-1.1l1-1.1l5.4-0.2c4.8-0.2,5.6-0.1,6.4,0.2c0.5,0.2,1.2,0.6,1.4,0.9
		l0.4,0.5l0.7-0.8l0.8-0.7l5.3-0.2c6-0.2,6.7-0.1,7.7,1.1l0.6,0.8l0.9-0.9c0.8-0.8,1-0.9,2-0.9c0.6,0,1.7-0.1,2.5-0.1l1.3-0.2v-1.1
		v-1.1l5.2-2.4c2.9-1.3,5.2-2.4,5.3-2.4c0,0,0.2-0.9,0.3-1.9c0.3-2.6,0.8-4,1.6-4.9l0.7-0.8h6.7h6.6l0.6,0.7
		c0.4,0.4,0.7,1.1,0.9,1.5l0.2,0.9h2.1h2.1v-1.6c0-1.5,0.1-1.7,0.6-2.2l0.6-0.5l12.2-0.1h12.2v-0.7c0-0.5,0.9-1.6,6.4-7.1
		c3.5-3.5,7.4-7.2,8.5-8.1c8.2-6.5,16.9-9.8,30.6-11.3c2.8-0.3,4.9-0.4,12.9-0.3c5.3,0,11.6,0.1,14.1,0.1h4.5l2.2-0.7
		c2.9-0.9,5-1.3,8.3-1.5l2.8-0.1l-0.1-1.3c0-0.7,0-1.4,0.2-1.5c0.1-0.1,0.9-0.4,1.8-0.5c3-0.5,4.5-1.7,5.7-4.4
		c0.9-2,1.3-4.2,1.5-8.6s0.4-5.9,1.3-8.1c1.5-4.3,4.1-6.2,8.7-6.4l2.1-0.1l0.6-0.9c0.6-0.8,1-1.1,3.3-2c1.4-0.6,2.9-1.3,3.3-1.6
		c0.8-0.6,1.4-1.7,2.5-4.7c2.3-6.2,3.8-13.5,5-24.8c0.4-4.1,0.4-4.3,0-4.9c-0.2-0.4-1.7-1.8-3.3-3.1c-3.2-2.6-4-3.7-4-5.3
		c0-1.3,0.5-2.3,1.6-2.8c1.7-0.8,5.1-1.3,8.9-1.3h3.5l5.3-3.3l5.3-3.3l1.9,0.9l1.9,0.9l7.6-16.8l7.5-16.8l2,0.9
		c3.8,1.8,6.8,3.2,6.9,3.3c0,0-9.1,33-10,36c-0.1,0.3,0.2,0.5,1.2,1c0.9,0.4,1.3,0.8,1.4,1.2c0.3,1.2,1.7,10.3,2.1,13.6
		c1.3,10.1,1.6,17.6,1.5,28.2c-0.2,15-1.8,27-5.2,41.2c-3.4,13.9-8.1,26.4-15.4,41.1c-2.9,5.8-3.1,6.3-3.2,7.6
		c-0.1,1.4-0.1,1.5,0.8,2.7c1.9,2.7,3.1,5.4,3.7,8.5c0.3,1.5,0.3,1.6,0,2.4c-1.1,2.3-6.2,4-16,5.5c-3,0.5-3.3,0.5-3.5,0.2
		c-0.5-0.9-1.2-1.4-1.8-1.4c-0.9,0-1.2,0.5-1.1,1.4l0.1,0.7l-1,0.1c-0.6,0.1-1.6,0.2-2.2,0.3c-1.1,0.2-1.2,0.2-1.4-0.4
		c-0.4-1-0.6-1.2-1.2-1.2c-0.6,0-0.6,0-0.6,0.9c0,1,0,1-2.4,1.3c-0.7,0.1-1.5,0.2-1.7,0.2c-0.3,0.1-0.4-0.1-0.5-0.8
		c-0.2-1.1-0.7-1.5-1.6-1.2c-0.5,0.2-0.6,0.3-0.6,1.3c0,1.2,0.2,1.1-2.2,1.5c-1.8,0.3-1.8,0.3-2.1-0.6c-0.1-0.5-0.4-1-0.6-1.1
		c-0.3-0.3-1.5-0.4-1.8-0.2c-0.2,0.2-0.2,0.9,0,1.7l0.2,0.8l-2.7,0.4c-10,1.3-24.1,2.1-38,2.1h-8L561.6,8757.1z"/>
</g>
<g transform="translate(0.000000,1280.000000) scale(0.100000,-0.100000)">
	<path class="st1" d="M1100.3,12701.9l-5.5-19.1v-10.4v-10.4l-1.7-0.1l-1.7-0.1l-0.1-4.8l-0.1-4.8h1.8h1.8v-4.3v-4.3h1.8
		c1,0,1.8-0.1,1.8-0.2s-0.8-1.3-1.7-2.6c-19-26.2-25.2-58.2-18-92.5c1-4.7,1.8-6.6,3.7-8c1.2-0.9,1.6-1,4.2-1c2.5,0,3.3,0.1,4.7,0.9
		c1,0.5,2.2,1.5,2.6,2.2c1,1.4,1,2.2-0.3,12.4c-3.9,32.4,0,55.2,12.9,74.6c2.3,3.5,5.9,8.1,6.3,8.1c0.1,0,1.3-1.3,2.6-3
		c10.2-13.2,15.7-27.3,17.6-45.5c0.5-5.1,0.5-19.5,0-25.9c-0.2-2.6-0.8-7.4-1.2-10.7c-1-7.9-1-8.9,0-10.4c1.7-2.4,6.7-3.9,9.7-3
		c2,0.6,3.7,2.4,4.4,4.6c0.9,2.3,2.3,9.5,3.2,16.1c1,7.5,0.9,25.4-0.2,32.4c-1.3,8.6-3.7,17.3-6.9,25.3c-3,7.4-9.4,18.8-13.8,24.4
		c-0.5,0.7-1,1.4-1,1.6s0.9,0.2,2,0.2h2v4.3v4.3h1.6h1.6v4.9v4.9h-1.8h-1.8l0.2,10.4l0.2,10.4l-5,18.4c-2.7,10.2-5,18.7-5.1,19.1
		c-0.2,0.5-0.9,0.6-7.9,0.6h-7.7L1100.3,12701.9z"/>
	<path class="st1" d="M1306.1,12718c-1.4-0.9-1.9-1.8-1.9-3.5c0-2.7-1.8-5-4.4-5.4c-1.1-0.2-1.3-0.1-1.3,0.4c0,1.9-2.9,5.3-5.7,6.7
		c-3.5,1.8-4.5,1.8-23.9,1.8c-12.1,0-18.8-0.1-20.1-0.4c-3-0.7-5.8-2.2-7.8-4.5l-1.7-2h-3.9c-17.8,0-40-13.6-49.2-30.2
		c-1.5-2.7-3.5-7.4-3.3-7.8c0.1-0.1,1.5-1.1,3.1-2.2l2.9-1.9l4.1,4c13.2,12.8,22.9,17.6,39.8,20.2c2.2,0.3,4.4,0.7,5,0.8l0.9,0.2
		l0.1-5.9c0.1-6.8,0.5-7.8,3.4-10.3c1.5-1.4,4.8-3,6.1-3s3.2-5.6,2.4-6.9c-0.5-0.8-0.5-2.2,0-2.7c0.3-0.3-0.3-39.4-1.7-123.2
		l-2.1-122.8l1-2.1c0.8-1.6,1.5-2.3,3-3.3l2-1.2l13.8,0.3c10.7,0.2,14.2,0.4,15.7,0.8c2.4,0.7,4.7,3,5.4,5.3
		c0.4,1.4,0.1,20.8-1.7,119.5c-1.2,64.8-2.2,119.9-2.2,122.5s0,5.7,0,6.9c-0.1,4.2,1.2,6,5.2,7c4.6,1.2,7.9,3.8,9,7.1
		c0.4,1.2,0.6,1.4,1.5,1.3c2.8-0.3,4.4-2.1,4.4-4.7c0-3.8,1.3-4.4,8.9-4.4c6.2,0,7.7,0.4,8.5,2c0.3,0.7,0.4,6.6,0.4,20.4v19.5
		l-1,1.2l-1,1.2l-6.3,0.1C1307.8,12718.7,1307.1,12718.7,1306.1,12718z"/>
	<path class="st1" d="M1030.3,12704.7c-3.5-1.8-8.2-6.7-9.8-9.9c-3.3-6.8-2.9-14.5,1-20.6c1.8-2.7,4.2-5.2,6.9-7l2.1-1.4v-37v-37
		l-2.2-1.6c-3.7-2.7-6.5-7.1-7.6-11.6c-0.6-2.8-0.3-7.6,0.7-10.3c1-3,3.7-6.8,6.1-8.8c1.7-1.4,5.7-3.7,6.4-3.7
		c0.1,0,0.2,4.3,0.2,9.6v9.6l4.4,2.2l4.5,2.2l4.2-2.2l4.2-2.2v-9.6v-9.6l0.8,0.2c1.7,0.5,5.2,3,7.3,5.1c3.7,3.8,5.6,8.2,5.6,13.4
		c0,5-1.4,8.9-4.7,12.7c-1,1.2-2.6,2.7-3.6,3.4l-1.8,1.3v37v37l2.1,1.3c4.7,3,8.8,8.7,9.8,13.8c2,9.7-2.9,19.2-12.3,24
		c-1.2,0.6-2.2,1-2.3,1c-0.1,0-0.2-4.8-0.2-10.6v-10.6l-4.6-2.4l-4.6-2.4l-4.8,2.4l-4.8,2.4v10.6c0,5.8-0.1,10.6-0.3,10.6
		C1032.9,12706.1,1031.7,12705.5,1030.3,12704.7z"/>
	<path class="st1" d="M1210.3,12655.3c-2.3-1.2-3.9-2.9-5.1-5.6l-0.9-2l-0.1-33.2c-0.1-29.6,0-33.4,0.5-35.3c0.3-1.1,0.8-2.4,1-2.8
		c0.5-0.7,0.4-1-0.3-2.9c-0.8-1.9-1-2.1-2.1-2.3c-1.4-0.2-2.1-0.6-2.9-1.8c-0.8-1.1-0.8-3.7-0.1-5.1c0.9-1.7,2.2-2.2,6.5-2.2h3.8
		v-47.7v-47.7l-2.2-7.5l-2.2-7.5l1.7-7.4c0.9-4.1,1.9-8.6,2.2-9.9l0.6-2.4h5h5l0.4,1.4c0.2,0.7,1.3,5.2,2.5,9.9l2.2,8.6l-2.3,6.2
		l-2.3,6.2v49v49h4.5c5.2,0,6.3,0.3,7.2,2.3c0.7,1.5,0.8,3.2,0.1,4.5c-0.7,1.4-1.5,1.9-3,2.2c-1.2,0.2-1.4,0.4-2.1,2.2l-0.8,2l1,2.3
		l1,2.3l0.1,32c0.1,22.1,0,32.7-0.3,34.3c-0.5,2.8-1.7,5.4-3.4,7.1c-2.2,2.2-3.1,2.5-8.3,2.7
		C1212.4,12656.2,1212.1,12656.2,1210.3,12655.3z"/>
	<path class="st1" d="M1156.3,12638.1v-5.8h2.5h2.5l0.2-3.3c0.1-2.4,0.4-3.5,0.8-4c0.5-0.6,0.5-0.7,0-1.6c-0.7-1.2-0.7-2.3,0-3.2
		c0.5-0.5,0.5-0.7,0.1-1.2c-0.6-0.7-0.5-2.3,0.3-3.1c0.5-0.5,0.5-0.7,0-1c-0.7-0.6-0.7-2.5,0.1-3.3c0.5-0.6,0.5-0.8,0.2-1.4
		c-0.6-1-0.5-2.9,0.2-3.7c0.5-0.6,0.5-0.7,0-1.3c-0.8-0.9-0.8-2.9,0-3.8c0.5-0.5,0.5-0.8,0.2-1.1c-0.7-0.7-0.5-3.2,0.2-4
		c0.5-0.6,0.5-0.7,0-1.3c-0.8-0.9-0.8-2.6,0.1-3.5c0.7-0.7,0.7-0.8,0.2-1.3c-0.7-0.6-0.7-2.5,0.1-3.3c0.5-0.6,0.5-0.7,0-1.3
		c-0.8-0.9-0.8-2.7,0.1-3.5s0.9-1.4,0.2-2c-0.8-0.7-0.7-2.5,0.2-3.5l0.8-0.8l-0.8-1c-0.8-1.1-0.7-2.3,0.4-4c0.4-0.7,0.4-0.9-0.1-1.4
		c-0.8-0.9-0.8-2.7,0.1-3.5s0.9-1.4,0.2-2c-0.3-0.3-0.5-1-0.5-2c0-0.9,0.2-1.7,0.5-2s0.5-0.7,0.5-0.9c0-0.3-0.3-0.7-0.5-0.9
		c-0.6-0.5-0.7-2.1-0.2-3.4c0.7-1.9,6-2.7,9-1.3c1.5,0.7,1.5,0.7,1.5,2.5c0,1.2-0.2,2-0.5,2.2c-0.3,0.3-0.5,0.7-0.5,0.9
		c0,0.3,0.3,0.7,0.5,0.9c0.3,0.3,0.5,1,0.5,2c0,0.9-0.2,1.7-0.5,2c-0.7,0.6-0.7,1.2,0.2,2c1,0.9,0.9,2.6-0.1,3.7l-0.8,0.8l0.8,0.8
		c1,1,1,2.8,0.1,3.7c-0.7,0.7-0.7,0.7,0,1.6c0.9,1.2,0.9,2.8,0.1,3.7c-0.5,0.6-0.5,0.7,0.2,1.6c0.9,1.2,1,2.6,0.2,3.7
		c-0.5,0.8-0.5,0.9,0,1.5c0.7,0.8,0.8,2.7,0,3.3c-0.5,0.4-0.5,0.5,0,1.1c0.7,0.8,0.7,3,0,3.6c-0.5,0.4-0.5,0.5-0.1,1
		c0.8,0.9,1,3.5,0.4,4c-0.4,0.3-0.4,0.5,0,1.2c0.7,1,0.7,3.1-0.1,3.9c-0.5,0.6-0.5,0.7,0,1.3c0.8,0.8,0.8,3.1,0.1,3.7
		c-0.5,0.4-0.5,0.5,0,1.1c0.7,0.7,0.7,2.6,0.1,3.6c-0.4,0.5-0.3,0.8,0.2,1.4c0.8,0.9,0.8,1.8,0,2.7c-0.5,0.6-0.5,0.7,0,1.3
		c0.8,0.9,0.8,2.4-0.1,3.1c-0.7,0.7-0.7,0.7,0,1.4c0.6,0.6,0.8,1.4,0.8,4l0.1,3.3l2.5,0.1l2.4,0.1v5.7v5.8h-12.7h-12.7v-5.6H1156.3z
		"/>
	<path class="st1" d="M1119.1,12521.1c-16.1-1.4-32.8-4.4-52.1-9.2c-12-3-10.8-2.5-10.8-5.2v-2.3l-4,0.1l-4.1,0.1l-0.1,1.9l-0.1,1.9
		h-4.9h-4.8v-0.9c0-0.8-0.1-0.9-1.7-0.9c-1,0-5.9-1.1-11.6-2.6l-9.8-2.6l0.1-4.1l0.1-4.2l9.8-2.8c5.9-1.7,10.4-2.8,11.5-2.8
		c1.6,0,1.7-0.1,1.7-0.9v-0.9h4.9h4.9v1.8c0,1.3,0.1,1.8,0.6,2c0.3,0.1,2.1,0.2,4,0.2h3.5l-0.2-2.9c-0.1-2.6-0.1-3,0.7-4.1
		c0.4-0.7,2.1-3.3,3.6-5.9c3.4-5.7,5.1-8,8.4-11.1c4.3-4,8.7-6.5,15.5-8.8c8.6-2.7,16.3-3.8,30.9-4.2c5.9-0.1,10.7-0.3,10.8-0.3
		c0,0,0.1-0.9,0.1-2s0.3-2.5,0.5-3.1c1-2,1.8-2.2,11.7-2.2h9l0.1-12c0.1-10.9,0.2-12.1,0.8-13c0.9-1.4,2.4-1.8,5.2-1.7l2.5,0.1
		l0.2-5.1c0.3-5.1-0.2-17.7-0.9-23.3c-0.2-1.7-0.6-5-0.9-7.4c-0.6-4.1-0.6-4.4,0-5.3c1.6-2.5,7.6-3.8,14.1-3.1
		c13.2,1.3,27.2,6.9,36.7,14.8c2.6,2.1,2.5,1.5,1.7,10.5c-1.8,19.7-5.2,38.1-9.9,54.6l-2,7.1l-0.3,8.1c-0.3,9.1-1,15.3-2.5,22.7
		c-1,5-3.7,14.7-4.4,16.3c-0.3,0.7-1.6,1.3-5.7,2.8c-13.6,5-23.3,7.8-32.7,9.2c-4.2,0.7-6.9,0.8-16.6,0.9
		C1125.9,12521.2,1120,12521.2,1119.1,12521.1z"/>
	<path class="st1" d="M1024.9,12408.4c0-16.6,0.1-22.6,0.4-22.6s10.7,3.5,23.2,7.8s22.9,7.8,23,7.8s0.7-0.4,1.3-0.8
		c1.1-0.9,2.6-0.7,3.7,0.3c0.7,0.7-1.2,0.8,24.3-1.2c20.8-1.6,20.9-1.6,23-0.6c2.1,0.9,4.2,3,5.1,5.1c1,2.2,1,5.9-0.1,8.3
		c-1.3,3.1-4.5,5.6-7.4,6.1c-0.8,0.1-11-0.6-22.8-1.6l-21.3-1.8l-0.9,0.9c-1.2,1.2-3,1.1-4.3-0.1l-0.9-0.9l-22.5,7.8
		c-12.4,4.3-22.8,7.9-23.2,8C1024.9,12431,1024.9,12430.6,1024.9,12408.4z"/>
	<path class="st1" d="M1214.5,12364.4c-0.5-0.2-42.1-0.3-95.9-0.4c-99.9,0-96.8,0-97.7-1.5c-0.2-0.3-1.1-16.2-1.3-22.2
		c0-0.8,0.4-0.9,5.4-1.4l2.4-0.2l1.7,2.2c0.9,1.2,1.8,2.2,2,2.2c0.1,0,1-1.1,2-2.5c1.9-2.7,1.4-2.5,6.3-3l1.6-0.1l2,2.5
		c1.1,1.4,2.1,2.5,2.2,2.4s1.2-1.3,2.2-2.8c2.1-2.9,2.5-3.1,5.8-3.2c1.7,0,1.7,0,3.5,2.3c1,1.3,2,2.4,2.1,2.4s1.1-1.2,2.2-2.7
		c2.1-3,2-2.9,4.6-3.2l1.9-0.3l2.2,2.7l2.2,2.7l1.8-2.4c1-1.4,2-2.8,2.2-3.1c0.3-0.5,1-0.8,2.6-0.9l2.2-0.1l1.9,2.4
		c1,1.3,2,2.4,2.2,2.3c0.1-0.1,1.2-1.3,2.2-2.8l2-2.7l2.7-0.3l2.7-0.3l1.1,1.3c2.5,3.1,2,3.1,3.9,0.4c1-1.4,2-2.4,2.4-2.4
		s1.4-0.1,2.3-0.2l1.6-0.2l1.6,2c0.9,1.1,1.7,2,1.8,2c0.1,0,0.9-1,1.8-2.3l1.6-2.3l2.5-0.3c2.8-0.3,2.5-0.4,5,2.7l1,1.2l1.7-2.4
		c0.9-1.3,1.9-2.4,2.1-2.5c0.2,0,1.6-0.1,3-0.3l2.7-0.3l1.3,1.7c0.8,0.9,1.4,1.7,1.5,1.7s0.8-0.9,1.6-2c1.5-2.1,1.5-2.1,5.9-2.5
		l2.2-0.2l1.6,2l1.6,2l1.7-2.4c1.3-2,1.8-2.4,2.6-2.4c0.5,0,1.7-0.1,2.6-0.2l1.6-0.2l1.6,2c0.9,1.1,1.7,2,1.8,2c0.1,0,0.9-1,1.7-2.3
		l1.6-2.3l2.4-0.3c2.4-0.3,2.4-0.3,3.5,0.9c0.6,0.7,1.4,1.6,1.7,2.1c0.3,0.5,0.7,0.8,0.7,0.7c0.1-0.1,0.8-1.2,1.7-2.3
		c1.4-2.1,1.7-2.2,3.2-2.5c2.5-0.3,2.5-0.4,3.9,1.6c0.8,1,1.5,1.8,1.7,1.8c0.1,0,0.9-1,1.8-2.2c1.3-1.8,1.7-2.2,2.6-2.2
		c0.6,0,1.5-0.1,1.9-0.2c0.7-0.2,1.2,0.3,2.7,2.2c1,1.3,2,2.4,2.1,2.4s1.1-1.2,2.1-2.7s2.2-2.7,2.5-2.7s4.3-0.4,8.7-0.8
		c7.5-0.8,8.1-0.9,8.2-1.5c0.3-1.6,0.8-1.6,11.7-1.6h10.4l0.5-0.8c0.5-0.8,14.6-25.2,16.2-28.1c1.3-2.3,0.1-2.3,30.5,0.4
		c15.1,1.4,28.1,2.7,28.8,2.9c0.7,0.2,1.6,0.7,2,1.1c0.6,0.7,0.5,1.8-3,34.6l-3.7,33.9l-1.1,1l-1.1,1h-29.6
		c-16.2,0-36.2,0.1-44.4,0.2C1222.1,12364.7,1215,12364.6,1214.5,12364.4z M1292.1,12347c0.6-0.3,1-0.9,1.3-1.7
		c0.4-1.3,5.8-40.5,5.8-41.7c0-1.4-1.5-1.7-15.6-3.4c-12.9-1.6-14.1-1.7-16.2-1.3c-4.1,0.8-3.7,0.3-9.1,11.1l-5,9.8l-2.5,12.8
		c-2.5,12.7-2.5,12.8-1.8,13.6c0.7,0.7,1.3,0.7,7.7,0.9C1270.9,12347.5,1291.1,12347.4,1292.1,12347z"/>
</g>
<g transform="translate(0.000000,1278.000000) scale(0.100000,-0.100000)">
	<path class="st1" d="M940.8,12657.2c-0.2-0.1-0.4-0.3-0.5-0.4c-0.1-0.2-1.5-2.6-3-5.4c-1.5-2.8-2.9-5.4-3.1-5.6
		c-0.5-0.8-0.5-0.8-3.2-0.9l-2.4-0.1l-0.5,0.3c-0.5,0.3-0.6,0.3-4,5.3c-1.9,2.8-3.6,5.2-3.7,5.4c-0.3,0.4-0.8,0.6-1.3,0.6
		c-0.4,0-11.4-3.6-11.7-3.9c-0.6-0.4-0.7-0.9-0.6-2.3c0.2-2.9,0.7-8.6,0.8-10l0.1-1.5l-0.3-0.6c-0.3-0.5-0.4-0.6-2.3-1.9
		c-1.1-0.8-2.1-1.4-2.3-1.5c-0.8-0.2-0.9-0.2-7.1,2.4c-6.4,2.7-6.2,2.6-7,2.2c-0.4-0.2-7.6-9.1-7.7-9.6c-0.1-0.3-0.1-0.5,0-0.7
		s1.5-2.2,3.9-5.3c3.3-4.3,3.8-5,3.9-5.5c0.1-0.6,0.1-0.6-1.1-3.6c-1.1-2.7-1.4-3.1-2.1-3.3c-0.2-0.1-3.1-0.6-6.5-1.2
		c-6.4-1.1-6.4-1.2-6.8-1.7c-0.5-0.7-1.8-12.3-1.3-12.5c0.1,0,2.8-1.1,6.2-2.3c3.3-1.2,6.2-2.3,6.4-2.4c0.6-0.4,0.8-0.8,1.4-4
		c0.3-1.6,0.5-3.2,0.5-3.4c0-0.3-0.1-0.6-0.2-0.9c-0.1-0.3-1.6-1.7-4.8-4.6c-2.5-2.3-4.6-4.4-4.7-4.5c-0.1-0.2-0.2-0.5-0.2-0.8
		c0-0.4,0.2-0.9,2.5-5.3c1.4-2.6,2.6-4.9,2.7-5.1c0.1-0.1,0.4-0.3,0.7-0.4c0.4-0.1,0.8,0,6.5,1.2c6.3,1.4,6.6,1.5,7.3,1.1
		c0.4-0.2,4.9-4.8,5.1-5.3c0.4-0.7,0.3-0.9-0.6-4.7c-2.3-8.9-2.2-8.7-2.1-9.1c0.1-0.2,0.2-0.5,0.3-0.6s2.3-1.4,4.9-2.9
		c4.3-2.4,4.8-2.7,5.2-2.7c0.3,0,0.6,0.1,0.7,0.2c0.2,0.1,2.2,2.1,4.6,4.6s4.5,4.5,4.7,4.6c0.7,0.4,0.9,0.4,4.4-0.4
		c1.8-0.4,3.4-0.8,3.6-0.9c0.7-0.4,0.7-0.5,2.8-6.7c1.9-5.8,2-6,2.4-6.3c0.2-0.2,0.5-0.4,0.7-0.4c0.9-0.2,6.4,0.2,9.9,0.6
		c1.6,0.2,1.9,0.4,2.2,1.1c0.1,0.2,0.7,3.1,1.4,6.4c0.8,3.9,1.3,6.1,1.4,6.3c0.4,0.6,0.7,0.7,3.6,1.9c3.2,1.2,3.6,1.3,4.3,0.9
		c0.2-0.1,2.4-1.8,4.9-3.9c2.5-2.1,4.8-3.8,4.9-3.9c0.2-0.1,0.4-0.2,0.8-0.1c0.5,0,0.6,0.1,3.4,2.2c5.6,4.3,6.2,4.7,6.4,4.9
		c0.1,0.1,0.2,0.5,0.2,0.7c0,0.4-0.1,1-2.2,6.4c-1.2,3.3-2.3,6.1-2.3,6.2c-0.1,0.7,0.1,1.1,1.7,3.2c0.8,1.1,1.6,2.2,1.7,2.3
		c0.3,0.4,0.9,0.6,1.5,0.6c0.3,0,3.2-0.3,6.4-0.6l5.9-0.6l0.4,0.2c0.2,0.1,0.5,0.3,0.6,0.4c0.1,0.2,3.5,9.2,4.1,10.9
		c0.2,0.6,0.1,1.2-0.4,1.7c-0.2,0.2-2.6,2-5.3,4c-4.9,3.6-5,3.7-5.2,4.2l-0.2,0.5l0.1,2.1c0.2,2.7,0.2,2.8,0.5,3.4
		c0.3,0.4,0.5,0.5,5.9,3.3c3.1,1.6,5.7,2.9,5.8,3c0.2,0.2,0.5,0.8,0.5,1.1c0,0.4-2.5,11.8-2.7,12.1c-0.1,0.2-0.3,0.4-0.5,0.5
		c-0.4,0.3,0,0.2-9.8,0.9c-3.8,0.2-3.8,0.3-4.4,0.8c-0.4,0.4-2.2,3.7-2.2,4.2c0,0.3,0,0.6,0.1,0.8s1.6,2.8,3.3,5.7
		c3,5.1,3.2,5.4,3.2,5.8c0,0.3-0.1,0.6-0.1,0.7c-0.1,0.2-8.2,8.6-8.7,8.9c-0.1,0.1-0.4,0.2-0.8,0.2h-0.6l-5.5-3
		c-3-1.7-5.6-3.1-5.8-3.2c-0.7-0.2-1.1-0.1-2.9,0.9c-1.8,1-2,1.2-2.3,1.7s-0.2,0.4-0.5,7.3c-0.2,5.7-0.2,5.9-0.4,6.3
		c-0.4,0.7,0.3,0.5-9.5,2.9c-1.7,0.4-3.1,0.7-3.2,0.7C941.1,12657.3,940.9,12657.3,940.8,12657.2z M937,12631.6
		c2.7-0.3,4.9-0.8,7.2-1.6c12.2-4,21.5-14.5,24-27c0.6-2.7,0.7-4.1,0.7-7.2c0-3,0-3.7-0.4-6.1c-1.9-11.3-9.2-21.3-19.6-26.4
		c-3.9-1.9-7.3-3-12.1-3.6c-1.5-0.2-6.9-0.2-8.5,0c-8.5,1.2-15.8,4.8-21.6,10.8c-8.2,8.5-11.7,20.2-9.6,31.9
		c1.4,7.7,5.6,15.1,11.6,20.4c5.9,5.2,13.1,8.3,21,9C931.2,12631.8,935.6,12631.8,937,12631.6z"/>
</g>
<g transform="translate(0.000000,1280.000000) scale(0.100000,-0.100000)">
	<path class="st1" d="M1489.4,12752.9c-0.9-0.1-6.5-1-8.2-1.4c-1.3-0.3-1.3-0.3-1.9,0l-0.6,0.3l-1.5-0.4c-2.1-0.5-4.7-1.5-6.7-2.6
		c-2.4-1.3-2.9-2.1-2.9-4.6c0-1.3,0.3-2.8,0.7-3.6c0.4-0.8,1.2-1.7,1.8-2c0.5-0.2,0.8-0.3,1.7-0.2c1,0,1.3,0.1,2.6,0.8
		c1.9,0.9,4.3,2.4,5.8,3.5c1.2,0.9,2.3,1.9,2,1.9c-0.2,0-0.1,1.9,0.1,2.1c0.1,0.1,5.1,1.1,7.8,1.5c1.2,0.2,2.9,0.3,3.8,0.3h1.6
		l1-0.7c4.4-2.9,10-10.1,14.9-19.2c2.8-5.2,5.5-11.1,8.3-18l0.8-1.9l-0.1-1.1c-0.1-1.1-0.1-1.1,0.5-2.9c0.7-1.9,1.2-3.7,1.7-6.6
		c0.3-1.6,0.3-2.5,0.3-5.2c0-3.5-0.1-4.8-0.9-7.3c-1.8-6.2-6.4-10.8-13.1-13.1c-9.6-3.3-21.6-0.6-34.5,7.8c-2.7,1.8-6.4,4.5-7.1,5.3
		c-0.3,0.3-0.9,0.8-1.2,0.9c-0.6,0.3-1.1,0.8-2.9,3c-13,15.9-20.4,28.9-20,35.3c0.1,1.4,0.3,2.1,1,3.3c1.6,2.6,4.2,4.8,7.3,6.1
		c1.5,0.6,1.6,0.6,2.2-0.2c0.3-0.4,0.8-0.8,1.1-1c0.6-0.3,0.7-0.3,1.9-0.1c2.6,0.4,6,1.4,8.2,2.4c1.5,0.7,1.6,0.9,1.6,2.6
		c0,4.2-1.2,6.7-3.8,7.5c-0.6,0.2-0.7,0.2-2.3-0.4c-3.4-1.1-7.9-3.5-8.5-4.4c-0.1-0.3-0.3-0.7-0.3-1v-0.5l-1.9-1
		c-2.5-1.3-4.4-2.6-6.2-4.5c-1.7-1.7-2.8-3.2-3.7-5.1c-0.7-1.5-0.9-2.3-0.9-3.8c0-3.5,1.5-8.2,4.8-14.6c6.1-12,16.9-26.6,30.9-41.8
		c2-2.2,2-2.1,1.6-3.1c-0.2-0.5-0.2-0.5,0.8-1.6c5.8-6.6,14.1-13.3,20.6-16.9c4.2-2.3,8.3-3.7,12.2-4.3c2.3-0.3,6.7-0.1,8.3,0.4
		c0.2,0.1,0.9-1,3.6-6.1c7.3-13.7,11.8-22.5,13.1-25.4c3.4-7.6,3.8-16.1,1.1-24.1c-0.9-2.9-2.9-6.9-4-8.1c-2.5-2.9-6.3-5-11.1-6
		c-2.3-0.5-6.6-0.5-8.9,0c-5,1.1-8.5,3.3-17.9,11.5c-1.5,1.3-3.6,3.1-4.6,3.9c-7,5.6-13.4,8.9-19.5,10c-2.1,0.4-6.6,0.4-8.6-0.1
		c-3.2-0.7-5.2-1.4-10.3-3.8c-5.2-2.5-7-3-9.6-3c-3.2,0-5.9,1.4-9.1,4.6c-4,4.1-6.8,10-7.9,17.1c-0.3,2-0.3,5.4-0.1,7
		c0.5,3.3,2.2,9.8,4,15.7c1.1,3.7,1.1,3.7,0.5,4.2c-0.3,0.2-0.5,0.5-0.5,0.6c0,0.2,0.2,0.2,1.4,0.2c4.2-0.2,8.7,1.7,11.5,4.8
		c1.7,1.8,3,4.3,3.7,6.6c0.4,1.5,0.6,4.9,0.3,6.5c-0.5,3.1-2,5.9-4.3,8.2c-4.6,4.6-11.8,5.8-17.6,2.9c-2.2-1.1-4.6-3.2-5.9-5.2
		c-4-6.1-3.2-14.2,1.9-19.3c1.1-1.1,2.5-2.2,3.6-2.7c0.3-0.1,0.5-0.3,0.5-0.4c0-0.1-0.5-0.2-1-0.2c-0.6,0-1-0.2-1-0.3
		s-0.4-1.4-0.9-2.9c-2.1-6.6-3.7-12.7-4.4-17.3c-1.1-6.8,0.6-16.2,4.4-23.5c4.2-8.1,11-13.8,17.8-14.8c1.9-0.3,3.1-0.3,5,0
		c3,0.4,5.4,1.2,11.2,3.6c7,2.9,8.4,3.3,11.6,3.3c3,0,5.4-0.6,8.4-2c4-1.9,7.4-4.3,14.9-10.8c8.4-7.2,11.9-9.7,16.2-11.4
		c7.6-3,17.1-2.5,24.7,1.4c2.6,1.3,4.5,2.6,6.3,4.4c2.2,2.2,3.6,4.3,5.4,8.3c5.1,11.2,5.2,21.4,0.2,33.8c-1.8,4.5-3.2,7.2-11.7,23.2
		c-2.6,4.9-4.8,9-4.8,9.1s0.5,0.7,1.1,1.4c3.5,3.6,6,8.9,7.2,15.2c0.7,3.7,0.9,6.5,0.9,11.1c0,4.9-0.3,8.7-1.2,14.1
		c-0.6,3.7-0.5,3.4-1.5,3.6c-0.8,0.1-0.8,0.2-0.9,0.6c-0.1,0.3-0.7,2.3-1.5,4.6s-1.4,4.1-1.4,4.2c0,0,0.1,0,0.2,0
		c0.2,0,0.2,0.1,0.1,0.3c-0.1,0.3-3,8.5-3.2,9c-0.1,0.1-0.3,0.3-0.5,0.4c-0.3,0.1-0.5,0.4-0.8,1.1c-0.8,2.1-2.9,6.9-4.7,10.5
		c-4.1,8.3-8.6,15.4-13.4,20.9c-2.3,2.7-6.8,7.3-7.6,7.8c-1,0.7-2.4,1.1-3.9,1.4C1493.7,12752.9,1490.4,12753,1489.4,12752.9z
		 M1526.1,12692.4l0.5-1.6l-0.4-0.3c-0.2-0.1-0.4-0.3-0.4-0.3s-0.1,0.8-0.2,1.8c0,1-0.1,1.9-0.2,2.1c-0.1,0.2-0.1,0.2,0.1,0
		C1525.6,12694.1,1525.8,12693.3,1526.1,12692.4z M1526.4,12683.8c1.1-9.1,0.8-17.2-1-22.8c-1.6-4.9-4.5-8.5-8.1-9.9
		c-6.4-2.6-16,1.5-27.4,11.7c-1.8,1.6-5.8,5.5-6.3,6.2l-0.4,0.5l1.1-0.5c9.4-4.3,17.7-5.3,24.7-3c1.9,0.6,5.3,2.3,6.8,3.5
		c2.8,2.1,5.3,5,6.9,8.1s2.4,5.8,3,9.9c0.1,0.7,0.1,0.7,0.4-1C1526.1,12685.8,1526.3,12684.5,1526.4,12683.8z M1480.5,12670.9
		c1.2-0.6,1.2-0.7,0.9-0.8c-0.2,0-0.5-0.1-0.6-0.1s-0.5,0.3-1,0.8c-0.4,0.4-0.7,0.8-0.7,0.8
		C1479.2,12671.5,1479.8,12671.3,1480.5,12670.9z"/>
</g>
<g transform="translate(0.000000,1194.000000) scale(0.100000,-0.100000)">
	<path class="st1" d="M1537.8,11679.7l0.1-1.1l-0.9-0.2c-0.9-0.2-1-0.3-1.2-1.1c-0.1-0.5-0.2-1.6-0.1-2.3l0.1-1.5l-0.7-0.1
		c-16.7-2.7-24.5-4.6-29.7-7.1c-2.2-1.1-3.5-2.3-3.5-3.2c0-1.8,4.3-3.1,11.6-3.6c5.5-0.4,11.9-0.3,23.2,0.4c2.6,0.2,2.7,0.1,2.6-0.3
		c-0.8-2,0-8.6,1.1-8.6c0.4,0,0.6-1.1,0.6-3.4c0-1.4,0.1-2,0.3-2.1c0.3-0.1,0.4-3.9,0.9-18.6l0.6-18.4l-0.6-0.4
		c-0.9-0.7-1.2-1.8-1.2-3.7c0-1.2-0.1-1.8-0.3-2c-0.8-0.6-0.1-1.7,1.5-2.4l0.8-0.3l0.2-2.7c0.1-1.5,0.3-7,0.4-12.3
		c0.3-10.7,0.2-10.2,2-10.1l1,0.1v-3.6c0-3,0-3.5-0.3-3.5c-0.2,0.1-0.4,0-0.6-0.2c-0.2-0.3-0.6-0.2-2.2,0.3l-2,0.6l0.1,0.9
		c0.1,0.5,0.3,1.2,0.5,1.6c0.2,0.4,0.6,1.2,0.9,1.6c0.7,1.3,0.6,3.1-0.1,4.1c-0.3,0.5-0.8,1.8-1.2,3.3c-0.3,1.4-0.8,2.7-1,3
		c-0.4,0.6-1.3,0.8-4.3,0.8h-2.3v0.9c0,0.9,0,0.9-1.1,1.1c-1.5,0.2-2.1-0.1-2.4-1.3l-0.3-0.9h-1.6c-1.5,0-1.6,0-1.6,0.5
		c0,0.3-0.1,0.7-0.2,0.9c-0.4,0.8,0,1.2,0.9,1c0.7-0.1,0.9-0.1,0.9,0.2c0,0.2-0.4,0.6-0.8,0.9c-0.4,0.3-0.8,0.7-0.8,0.9
		c0,0.6-0.4,0.8-1.6,0.8c-0.6,0-1.3,0.1-1.5,0.2c-0.9,0.3-0.7-0.6,0.3-1.2c0.6-0.4,0.8-0.6,0.8-1.2v-0.7h-1.9
		c-2.6,0-2.7,0.1-2.7,3.1c0,1.8,0.1,2.5,0.4,2.9c0.3,0.5,0.3,0.6,0,1.6c-0.2,0.6-0.4,1.4-0.4,1.9s-0.2,1.1-0.3,1.5
		c-0.4,0.9-2.2,2.4-3.8,3.3c-0.7,0.4-1.6,1.1-2.1,1.6c-2.6,2.9-12.6,5-24.7,5.1c-4.2,0-6.1-0.2-11.1-1.2c-6.1-1.2-10.5-3.2-11.7-5.5
		c-0.2-0.3-0.5-0.6-0.8-0.6s-0.4-0.2-0.4-0.7s-0.1-0.7-0.3-0.7s-0.3-0.2-0.3-0.7c0-0.4,0-0.8-0.1-1s0.1-0.4,0.5-0.6
		c0.5-0.2,0.6-0.4,0.6-1.5c0-0.9-0.1-1.3-0.3-1.4c-0.3-0.1-0.3-0.6-0.3-2.4v-2.3h-0.9c-0.8,0-1-0.1-1.2-0.6c-0.4-1-0.5-2.4-0.2-3.1
		c0.2-0.5,0.4-0.6,1-0.6c1.4,0,1.4,0.2,1.3-7.2c0-3.7,0-7.5,0.1-8.4c0.1-1.3,0.1-1.6-0.2-1.8c-0.6-0.3-0.5-1.8,0.1-2.4
		c0.3-0.3,0.5-0.7,0.5-1.2c0-0.4,0.1-0.9,0.3-1.2c0.2-0.3,0.3-0.8,0.2-1.3c-0.1-0.7,0-1.1,0.5-1.9c1.4-2.4,4.9-3.8,12.9-5.1l0.9-0.2
		l-1-0.6c-2.4-1.4-2.6-1.9-2.3-5.3c0.2-1.8,0.4-2.7,0.6-2.9c0.2-0.1,0.3-0.3,0.3-0.5c0-0.3,3.3-2,3.9-2c0.2,0,0.8,0.2,1.4,0.5l1,0.5
		l1.5-0.7c2-1,3.3-1.3,4.4-1.1l0.8,0.2l-0.8,0.3c-0.4,0.2-0.8,0.5-0.9,0.7c-0.2,0.6,0.2,0.8,1.5,0.5l1.2-0.3l-0.2-1.6
		c-0.2-2.4-0.3-2.3,5.6-3.2c0.9-0.1,2-0.5,2.4-0.7c0.4-0.3,1.2-0.5,1.7-0.5c1.5,0,2.7-0.3,2.9-0.7c0.1-0.2,0.7-1.5,1.3-2.9
		c0.7-1.6,1.5-2.8,2-3.2c1-0.9,2.5-3.8,2.2-4.1s-0.3-1.3,0.1-2c0.2-0.3,0.3-1.1,0.3-1.7c0-1.1,0-1.2,0.8-1.5
		c0.7-0.3,0.8-0.4,0.8-1.1c0-0.5,0.1-0.9,0.3-0.9c0.3-0.1,0.3-0.5,0.3-1.7c0-1.7,0.4-2.6,1.2-2.6c0.7,0,1.2,0.9,1.2,2.1
		c0,0.6,0.2,1.8,0.5,2.7l0.5,1.6h1.1h1.1l-0.1-6.3c-0.1-3.4-0.2-7.4-0.2-8.9v-2.6h-1c-0.8,0-1.2-0.1-1.6-0.6c-0.8-0.8-1.7-0.9-3-0.5
		c-1.2,0.4-1.4,0.3-1.1-0.4c0.9-2,4-3.4,4-1.8c0,0.6,0.4,0.3,0.8-0.6c0.3-0.6,0.4-1.5,0.4-2.6s0.1-1.9,0.4-2.4
		c0.3-0.6,0.3-1.5,0.1-8.4c-0.3-8.7-0.1-7.7-2.3-8.4c-0.6-0.2-1.5-0.5-2.1-0.7c-1-0.4-1-0.4-1.5,0.2c-0.7,0.7-1.3,0.6-1.3-0.3
		c0-0.6-0.2-0.7-1.2-1.1c-0.7-0.3-2.9-1.4-5-2.6c-2.1-1.1-3.8-2-3.9-2c0,0,0.3,0.9,0.7,1.9c2.1,5,3.6,9.9,3.9,13.1
		c0.1,1.2,0.2,1.4,0.8,1.6c0.7,0.3,1.6,2,1.7,3.2c0,1-0.9,2.9-1.4,2.9c-0.4,0-0.4,0.3-0.6,2.7c-0.3,5.9-2.3,13-5.5,19.5
		c-1.2,2.5-1.3,2.8-1,3.1c0.2,0.2,0.3,0.9,0.3,1.6c0,1-0.1,1.3-0.6,1.8c-0.9,0.8-2.3,1.5-2.8,1.4c-0.3-0.1-0.7,0.3-1.6,1.5
		c-0.7,0.9-2.4,2.7-3.8,4.2c-4.1,4.1-7.9,7-12.5,9.4c-2,1.1-2.2,1.3-2.2,1.8c0,0.6-1,1.6-2.2,2.3c-0.8,0.4-2,0.3-2.6-0.2
		c-0.4-0.3-0.7-0.4-0.9-0.3c-0.6,0.3-5.6,1.6-7.7,1.9c-5.9,0.9-12,0.9-17.3-0.2c-0.6-0.1-0.8-0.1-0.8,0.2c0,0.5-0.6,0.8-1.8,1
		c-0.9,0.1-1.8-0.1-2.2-0.7c-0.1-0.1-0.6-0.4-1.2-0.6c-0.6-0.2-1.1-0.6-1.3-0.9c-0.3-0.5-0.4-0.6-1.5-0.5c-0.8,0.1-1.4,0-2.2-0.4
		c-1-0.5-1-0.6-0.9-1.2c0.1-0.7,0.1-0.7-2-1.8c-4.5-2.3-9.1-5.6-11.9-8.3c-0.8-0.8-1.6-1.5-1.7-1.5c-0.4,0-4.2-1.9-4.7-2.3
		c-0.3-0.3-0.6-0.5-0.6-0.4c-0.1,0.1,1,28.8,1.1,29c0,0,1.8-0.4,3.9-0.9c12.8-3.2,24.3-3.6,31.2-1.2c1.1,0.4,2.3,0.8,2.6,0.9
		c0.7,0.2,1,0.7,1.6,2.9c0.1,0.5,0.4,1.2,0.6,1.5s0.3,0.9,0.2,1.4c-0.1,0.5,0,1,0.1,1c0.1,0.1,0.2,0.5,0.1,1
		c-0.1,0.7,1.6,12.1,1.8,12.4c0,0,0.4,0,0.9-0.2c0.8-0.2,0.9-0.2,1.4,0.6c1.3,2,1.2,3.3-0.5,3.7c-0.6,0.1-1.1,0.3-1.1,0.5
		s0.2,1,0.4,2c0.2,1,0.3,2,0.3,2.4c-0.1,0.3,0,1.2,0.1,2c0.2,1.1,0.3,1.4,0.7,1.4c0.3,0,0.4,0.2,0.4,0.7c0,0.4,0.2,1,0.4,1.3
		c0.7,0.9,0.9,2.2,0.7,3.2c-0.1,0.4-0.3,0.9-0.4,0.9c-0.1,0.1-0.2,0.9-0.1,1.9c0.1,1.7,0.1,1.9-0.5,3c-2.9,5.4-15.9,10.5-32.3,12.8
		c-4.1,0.6-12.1,0.6-14.8,0c-2.5-0.5-4.7-1.3-6.2-2.3c-0.6-0.4-1.4-0.7-1.7-0.8c-0.4,0-0.6-0.1-0.7-0.5s-0.5-0.7-1.7-1.3
		c-2.6-1.3-3.4-1.8-3.4-2.2c0-0.2-0.2-0.6-0.5-0.8c-0.4-0.3-0.4-0.6-0.3-1.4c0.1-0.7-0.1-1.9-0.8-4.7c-0.5-2-1-3.9-1.1-4.2
		s-0.3-0.5-0.6-0.5c-0.5,0-0.7-0.3-1-1.4l-0.2-0.8l-1.4,0.1c-0.8,0-1.5,0.1-1.5,0.2c-0.3,0.3,0.3,1.9,1.1,2.7
		c0.4,0.4,0.8,0.9,0.8,1.1c0,0.8-2,0.7-3.6-0.2c-1-0.6-1.3-1.2-0.6-1.4c0.9-0.2,0.9-1.7,0-2.1c-0.4-0.2-0.5-0.4-0.5-0.9
		c0-0.3,0-0.7-0.1-0.7c-0.1-0.1-0.9,0-1.7,0.1l-1.5,0.2l0.1,1.2c0.1,1.3-0.1,1.6-1.3,1.8c-0.8,0.1-1.2-0.2-2.2-1.7l-0.3-0.6
		l-2.7,0.3l-2.7,0.3l-0.6-0.7c-0.4-0.4-0.8-1.4-1.1-2.6c-0.5-1.8-0.9-2.8-2-4.8c-0.3-0.5-0.4-1.2-0.4-2v-1.2h-2.6
		c-1.4,0-2.9-0.1-3.3-0.1l-0.7-0.1v5.1c0,2.8,0.1,7.1,0.2,9.5l0.1,4.4l1.3-2.6c0.7-1.5,1.3-2.9,1.3-3.2s0.3-1.3,0.7-2.1
		c0.6-1.2,0.8-1.5,1.3-1.6c0.9-0.2,1.9,0.2,2.2,0.9c0.2,0.5,0.1,0.8-0.5,2.1c-0.4,0.9-0.9,1.8-1,2c-0.6,0.7-5.7,12.7-5.7,13.5
		c0,0.5,0.1,0.8,0.5,1s0.5,0.5,0.5,2.4c0,1.8,0.1,2.3,0.5,2.8c0.3,0.3,0.5,0.9,0.6,1.4c0.1,0.6,0.3,0.8,0.6,0.8
		c0.4,0,0.6-0.3,1.2-1.4c0.4-0.8,0.8-1.5,0.9-1.5c0.5-0.1,0.9,2.8,0.7,5.2c-0.2,2.5-0.4,3.3-1,3.3c-0.3,0-0.6-0.4-0.9-1.6
		s-0.6-1.6-0.9-1.6s-0.5,0.2-0.6,0.9c-0.1,0.5-0.4,1.1-0.7,1.4c-0.5,0.5-0.6,0.5-3.3,0.3c-1.5-0.1-3-0.2-3.3-0.2
		c-0.5,0-0.8,0.6-3.1,5.8c-2.5,5.6-2.6,5.8-2.2,6.2c0.3,0.3,0.4,0.6,0.2,1.1c-0.1,0.4-0.2,0.7-0.2,0.7s1.3-0.4,2.9-0.9
		c12.1-4.4,24.3-7.2,31.8-7.2c4.4,0,7.4,0.9,9.2,2.6c0.8,0.8,0.9,1,0.9,2.1c0,3.7-5.1,9.1-14.4,15.3c-3.7,2.5-6.8,4.2-12.1,6.9
		c-10.8,5.4-20,9.1-28.6,11.5c-17.6,4.9-28.8,5.1-31.1,0.5c-0.6-1.2-0.5-2.1,0.4-3.9c2.1-4.2,9.5-10.4,20.1-16.7
		c3.6-2.1,10-5.4,12.5-6.3c1.2-0.4,2.3-1,2.6-1.3c0.4-0.5,0.5-1.3,0.2-1.4c-1.8-0.2-3.4-1.1-3.2-1.9c0.1-0.8,1-1.1,1.9-0.7
		c0.4,0.2,0.9,0.6,1.1,0.8c0.2,0.3,0.5,0.4,0.7,0.4s0.8-0.6,1.4-1.3c1.5-1.9,6.3-13,6.1-14.2c-0.1-0.5,0-1.3,0.5-2.6
		c0.7-2,1.1-2.6,1.8-2.7c0.4,0,0.8-0.8,2.1-3.9l1.6-3.8l-0.1-13c-0.1-7.1-0.2-13-0.2-13.1c-0.1-0.1-1-0.2-2.1-0.3
		c-3.5-0.4-6.1-1.3-6.6-2.4c-0.1-0.3-0.3-0.9-0.3-1.3c-0.1-0.7-0.2-0.8-0.7-0.9c-0.5-0.1-0.7-0.3-1.1-1.1c-0.6-1.3-0.6-1.7,0-2.2
		c0.3-0.3,0.4-0.6,0.3-1.7c-0.1-0.7-0.2-1.3-0.3-1.4c-0.1,0-0.2-0.5-0.2-1.1s-0.1-1.9-0.1-3.1l-0.2-2.1h-0.9c-1,0-1.2-0.2-1.2-1.7
		c0-1.7,0.3-2.2,1.3-2.2h0.8v-1.1c0-5.1-0.9-27.3-1.1-27.5c-0.1-0.1-0.7-0.3-1.3-0.3c-1-0.2-1.1-0.1-1.2,0.4c0,0.5-0.2,0.6-1,0.6
		l-0.9,0.1l-0.3-1.2c-0.2-0.7-0.2-1.5-0.2-1.9c0.1-0.6,0.2-0.7,0.9-0.8c0.7-0.1,0.9,0,1.1,0.3s0.5,0.4,0.8,0.4
		c0.4,0,0.5-0.2,0.4-0.8c0-0.4-0.2-1.1-0.4-1.6c-0.3-0.6-0.3-1-0.2-1.5c0.1-0.4,0.1-1.2,0-2.2c-0.2-1.7,0-2.2,1.3-2.7
		c0.6-0.3,0.7-0.3,0.6-1.5c-0.1-0.6-0.3-4.1-0.5-7.7c-1-19.8-1.3-23.3-1.6-24.1c-0.2-0.4-0.8-1.3-1.4-1.9c-2.4-2.6-6-6.9-6.4-7.6
		c-0.2-0.5-0.5-1.4-0.6-2s-0.3-1.2-0.4-1.4c-0.2-0.1-0.3-0.7-0.4-1.2s-0.3-1.3-0.5-1.7c-0.4-0.9-0.3-1.1,0.7-1.5
		c0.7-0.3,0.9-0.3,1.4,0c0.4,0.2,0.6,0.4,0.5,0.6c-0.1,0.2-0.1,1.3-0.1,2.5c0,2.9,0.6,4.4,2.2,6.1c2.2,2.4,5.8,6.8,6.2,7.6
		c0.3,0.6,0.5,3.5,1.2,15.1c0.4,7.9,0.8,14.6,0.8,14.7s0.2,0,0.5-0.4c1-1.5,4-3,7.8-4l2.6-0.6v-4.1c0-2.3,0.1-9.2,0.2-15.4l0.1-11.2
		h-0.8c-0.4,0-0.9-0.1-1-0.2c-0.1-0.1-1.1-0.4-2.1-0.6c-1-0.2-2.1-0.4-2.4-0.5s-0.8-0.4-1.2-0.8c-0.3-0.3-4.5-3.5-9.2-7.1
		s-9-6.8-9.4-7.3s-0.9-0.9-1.2-0.9c-0.6,0-1.6-0.8-2.1-1.7c-0.2-0.4-0.6-0.9-0.9-1.2c-0.7-0.6-0.7-1,0.1-2.3c1-1.5,1.8-2.1,2.8-1.9
		c1.9,0.3,1.9,0.3,1.9,1.2c0,0.5,0.2,1.1,0.3,1.3c0.2,0.3,0.3,0.8,0.2,1.5c-0.1,0.7,0,1.2,0.2,1.4s2.9,2.4,6.2,4.8
		c4.4,3.4,5.9,4.4,6,4.1c0.1-0.2,0.2-0.4,0.2-0.5c0-0.4,1.5-1.9,2.3-2.3c0.8-0.4,2.3-2,2.3-2.6c0-0.1-0.9-1.8-1.9-3.6
		c-1.5-2.7-2-3.4-2.3-3.3c-0.5,0.1-1.2-1.1-1-1.8c0.1-0.3-1.6-3.4-5.9-10.9c-3.3-5.8-6.4-11.4-6.9-12.6c-0.5-1.2-1-2.2-1.1-2.2
		s-0.5-0.1-0.8-0.2c-0.5-0.1-0.8-0.4-1.2-1.2c-0.3-0.6-0.5-1.2-0.4-1.4c0.1-0.4-0.7-2.2-1.3-2.6c-0.3-0.3-0.5-0.7-0.5-1.2
		c0-0.9,0.3-1.2,2.6-1.8c2.1-0.7,3.4,0,3.1,1.5c-0.1,0.5-0.1,0.9,0,1s0.2,0.5,0.2,0.9s0.3,1,0.6,1.2l0.5,0.5l-0.5,0.8l-0.5,0.9
		l0.6,1.6c0.8,2,2,4.5,3,6c0.4,0.6,2.9,4.9,5.5,9.4s4.9,8.2,5,8.2s2.1-0.9,4.5-2.1c3.3-1.6,4.4-2.2,4.6-2.7c0.2-0.4,0.4-0.6,0.8-0.5
		c0.3,0.1,0.4,0,0.4-0.1c0-0.4,0.7-0.3,1.7,0.2c0.5,0.3,1.3,0.5,1.9,0.5s1.5,0.2,2,0.3s1.8,0.3,2.7,0.3c1.5,0,1.7,0,1.7,0.4
		c0,0.8,11.7,7.6,11.9,6.9c0.1-0.1-1.4-5.4-2.3-8.2c-0.1-0.4-0.4-0.8-0.6-0.8c-0.3,0-0.6-0.6-0.9-1.7c-0.6-2-0.9-2.2-2.7-1.7
		c-0.8,0.2-1.5,0.3-1.6,0.2c-0.2-0.2,3.2-3.6,3.7-3.7c0.5-0.2-0.4-3-1.1-3.6c-0.8-0.6-2-2.9-3.1-5.8c-0.5-1.2-1-2.4-1.2-2.7
		c-0.8-1.2,0.7-2.6,3.2-3.3c1.3-0.3,2.6,0,2.9,0.8s1.4,7.6,1.4,8.9c0,0.7-0.1,1.4-0.3,1.6c-0.3,0.3-0.2,0.6,0.2,1.9
		c0.5,1.5,0.5,1.5,1.4,1.6l0.9,0.1l0.6,3.1c0.5,2.4,0.6,3.2,0.4,3.3s0,1.2,1.1,4.6c0.7,2.4,1.4,4.5,1.4,4.6s0.8-1.3,1.7-3
		c1-2,1.5-3.2,1.4-3.4c-0.4-0.4-0.3-2.1,0.3-2.9c0.7-1.1,2-1.9,2.7-1.7c0.6,0.1,0.8-0.1,2.1-1.8c4.2-5.4,11.8-11.8,17.7-14.8
		c1.1-0.6,1.7-1,1.7-1.2s0.5-1,1.2-1.7l1.2-1.3h1.6c1.2,0,1.6,0.1,1.7,0.3c0.1,0.3,0.5,0.2,2-0.4c2.5-0.9,6.8-1.9,9.9-2.4
		c4.4-0.6,11.4-0.4,14.9,0.5c0.4,0.1,0.5,0,0.6-0.4c0.2-0.6,1.4-1.2,2.6-1.2c1.1,0,3,1.2,3.2,2.1c0.1,0.6,0.4,0.7,2.7,1.6
		c7.3,2.8,14,6.8,19.1,11.4c1.2,1.1,2.3,1.9,2.3,1.8c0-0.5,0.9-0.4,2.1,0.2c1,0.5,1.6,1.1,2.6,2.5c0.7,1,1.3,1.9,1.3,2.1
		c0,0.3,8.3,12.1,9,12.9c0.1,0.1,0.2,0,0.4-0.2c0.4-0.4,1.1-0.3,1.2,0.1c0.3,0.6,0.5,0.3,0.6-0.8c0.1-0.6,0.3-1.4,0.5-1.8
		c0.2-0.4,0.8-3.5,1.3-7.1c0.8-5.5,0.9-6.5,0.6-6.7s-0.3-0.7,0.2-3.6c0.3-1.8,0.6-3.4,0.6-3.4s0.3-0.1,0.6-0.1
		c0.5,0,0.6-0.1,0.7-0.9c0.1-0.5,0.2-1.3,0.3-1.8c0.1-0.7,0.1-1-0.1-1.2c-0.6-0.5-0.8-1.9-0.8-6.3v-4.4l0.6-0.7
		c0.8-0.9,2-1.1,3.7-0.7c1.5,0.3,2.6,1.2,2.6,2.2c0,0.7-1.4,6.4-2.1,8.3c-0.5,1.5-1,2.2-1.5,2.2c-0.2,0-0.3,0.3-0.3,0.7
		c0,0.3-0.1,1.1-0.1,1.7l-0.1,1.1l1.2,0.4c0.6,0.2,1.3,0.6,1.4,0.7c0.2,0.3,0.4,0.1,1.2-0.9c0.8-1,1.1-1.2,1.4-1.2
		c0.3,0.1,0.5,0.3,0.6,0.4c0.2,0.4-1.1,6.9-1.4,7.1c-0.2,0.1-0.3,0.2-0.4,0.2c-0.4,0-0.8-1.1-1-2.2c-0.2-1.3-0.3-1.5-1-0.8
		c-0.3,0.3-0.6,0.5-0.8,0.5c-0.2,0-0.4,0.4-0.5,1.3c-0.2,1.6-0.3,1.9-0.7,1.9c-0.3,0-0.6,0.9-0.6,1.8c0,0.2,0.3,0.3,0.6,0.4
		c0.5,0,0.8,0.4,1.5,1.6c1.2,2.2,1.3,2.4,1.1,2.9c-0.2,0.3,0,0.6,0.7,1.4c0.5,0.6,1.4,1.2,1.9,1.4s4.8,2.5,9.4,5.1
		c4.7,2.6,8.5,4.7,8.5,4.6c0,0,0.3-0.7,0.5-1.4s0.7-1.7,1-2.1c0.6-0.7,0.6-0.7,0.3-2c-0.2-0.8-0.3-2.2-0.3-3.5l0.1-2.2l0.8-0.2
		c2-0.6,3,0.1,3,1.9v0.9l1.1-0.2c0.6-0.1,1.7-0.1,2.4-0.1h1.3l3.6-3.8c3.3-3.4,3.7-3.9,3.6-4.5c0-0.5,0.1-0.8,0.4-1.1l0.5-0.4
		l-2.5-12c-1.6-7.7-2.6-12-2.8-12c-0.1,0-0.5-0.3-0.8-0.6c-0.4-0.5-0.5-0.9-0.4-1.8c0-0.6,0-1.2-0.1-1.2c-0.1-0.1-0.3-0.5-0.3-1
		c-0.1-0.5-0.3-1-0.5-1.1c-0.5-0.3-0.7-2-0.3-2.5c0.4-0.5,3.4-0.9,3.8-0.6c0.4,0.4,0.6,2.1,0.3,2.3c-0.1,0.1-0.2,0.4-0.1,0.6
		s0.2,0.8,0.2,1.1s0.2,0.9,0.3,1.3c0.3,0.8,0.2,2-0.3,2.8c-0.3,0.4,0,2,2.1,12.2c1.3,6.4,2.5,11.8,2.5,11.8c0.2,0.2,1.2-1.2,1.2-1.6
		c0-0.2,0.2-0.6,0.3-0.7c0.3-0.2,0.4-0.2,0.8,0.1c0.4,0.4,0.5,0.4,0.7,0c0.3-0.5,1-0.3,1,0.4c0,0.4,0.1,0.5,1,0.5
		c0.7,0,1.2,0.2,1.6,0.5s1.2,0.6,2.1,0.7c1.7,0.2,1.9,0.3,1.9,0.8c0,0.2,2.8,2.3,6.2,4.7l6.2,4.4l2.6,0.1c1.9,0.1,3.4,0.3,5.5,0.9
		l2.9,0.8l0.1,1.2c0.1,0.6,0.2,1.2,0.3,1.3c0.1,0.1,1.9-0.9,4.1-2.1l4-2.3l0.3-2.5l0.3-2.5l-0.6-0.6c-0.6-0.6-0.8-1.3-0.4-1.5
		c0.3-0.2,0.3-2.4,0-2.9c-0.2-0.3-0.2-0.6,0.1-1.3c0.5-1.2,1.7-1.9,3.2-1.8c1.8,0.2,2.1,0.4,2,1.2c-0.1,0.4-0.3,0.9-0.5,1.2
		c-0.2,0.2-0.3,0.5-0.2,0.6c0.1,0.1,0,0.3-0.1,0.5s-0.2,0.4-0.1,0.5s0,0.3-0.1,0.5c-0.2,0.2-0.2,0.4,0,0.6c0.5,0.6-0.3,2.9-1.1,2.9
		c-0.2,0-0.7,2.8-0.7,3.5c0,0.4,2.5-1,6.3-3.5c3.1-2,4.6-3.4,4.4-4c-0.1-0.3,0.1-0.8,0.6-1.5c0.4-0.6,0.8-1.4,0.9-1.8
		c0.1-0.5,0.4-0.9,0.9-1.2c0.7-0.5,1-0.5,2-0.4c1.5,0.2,2.4,0.6,3.3,1.8l0.7,0.9l-1,0.9c-0.5,0.5-1.1,0.9-1.2,1s-0.6,0.7-1,1.3
		c-0.8,1.2-1.8,1.9-2.5,1.8c-0.3-0.1-0.6,0.2-1.1,0.9c-0.8,1.1-2.3,2.1-8.7,5.9l-4.7,2.8l-3.2,15.2c-3.3,15.3-3.3,15.6-2.4,15.6
		c0.6,0,6.8-17.7,6.8-19.5c0-0.3-0.2-0.9-0.5-1.3c-0.4-0.5-0.5-0.8-0.3-1.1c0.2-0.2,0.2-0.6,0.1-0.9c-0.1-0.3-0.1-0.6-0.1-0.8
		s0-0.4-0.1-0.5s-0.3-0.3-0.3-0.6s0.3-0.6,1.3-1.1c1.2-0.5,1.4-0.6,2.3-0.3c1.9,0.5,2.3,1.2,1.5,2.9c-0.2,0.5-0.3,1.2-0.3,1.5
		c0.2,1-0.3,2.6-1,2.9c-0.4,0.2-0.6,0.5-0.6,0.9c0,1.3-1.3,5.8-2.2,7.6c-0.3,0.5-1.4,3.3-2.5,6.2c-1.6,4.2-2,5.5-1.8,6
		c0.1,0.6,0,0.8-0.2,0.9c-0.2,0.1-0.8,1.4-1.5,3.4c-1.7,5.2-3.4,9.9-4.3,11.8c-0.5,1-0.8,2.1-0.8,2.4c0,0.8-0.4,1.8-0.8,1.8
		c-0.1,0-0.2,0.1-0.1,0.3c0.2,0.6-0.4,1.1-1.6,1.4l-1.1,0.3l0.1,2.6c0,1.5,0.2,7.8,0.3,14c0.2,9.6,0.3,11.5,0.6,12.2
		c0.2,0.4,0.4,1.6,0.5,2.5c0.1,1.5,0.1,1.7,0.6,1.7c0.3,0,0.8,0.1,1.1,0.2c0.6,0.2,0.6,0.3,0.5,1.9l-0.1,1.7l-1.1,0.3
		c-1,0.3-1.1,0.4-1.1,1s-0.4,1.2-0.9,1.4c-0.1,0,0,8.9,0.3,20.8c0.3,11.4,0.5,21,0.6,21.3c0,0.3,0.1,0.5,0.3,0.5
		c0.3,0,0.3,0.3,0.3,0.9c0,2,0.2,2.4,1.2,2.9c1.3,0.6,1.8,1.2,1.8,2.2v0.8l7.3,0.3c11.2,0.4,17,1.3,19.4,3c0.8,0.6,1.1,1.5,0.8,2
		c-1.3,2.1-10.4,4.3-22.2,5.3c-8.6,0.8-7.8,0.6-7.8,1.4c0,0.4-0.2,0.8-0.4,1c-0.3,0.3-0.4,0.4-0.1,0.8c0.4,0.6,0.4,0.6-0.2,0.8
		l-0.5,0.2l0.5,0.3c0.6,0.3,0.8,1.6,0.7,3.7c-0.1,1.2-0.1,1.4-0.6,1.6l-0.6,0.2l0.2,8.8c0.1,6,0.1,8.9-0.1,9c-0.5,0.3-0.6-1-0.8-6
		c-0.3-11.1-0.4-11.8-0.9-11.9c-0.3,0-0.5-0.3-0.7-0.9c-0.3-1.1-1-1.2-1.2-0.2c-0.3,1.2-0.4,1.4-0.6,1.4c-0.4,0-0.7-0.4-1.1-1.6
		s-1.1-3.9-1-4c0,0,0.3-0.1,0.7-0.2c0.7-0.2,1.2,0.3,1.5,1.1c0.1,0.6,1.4,1.2,1.7,0.9c0.1-0.1,0.2-0.7,0.1-1.4
		c0-0.7,0.1-1.2,0.2-1.2c0.4,0,0.2-0.9-0.3-1.2c-0.3-0.2-0.5-0.5-0.5-0.9v-0.7l-1.9-0.1c-1.1-0.1-4.5-0.2-7.7-0.3s-6.5-0.2-7.4-0.3
		l-1.7-0.2l-0.1,0.8c-0.3,1.5-0.9,1.8-3.7,1.9c-1.3,0.1-2.4,0.1-2.5,0.2c0,0-0.3,8.3-0.7,18.3c-0.6,15.6-0.6,18.3-0.3,18.5
		c0.3,0.1,0.3,0.8,0.3,2.6c0,2.2,0.1,2.7,0.7,4.4c0.7,2,0.7,2.5,0,2.2c-0.4-0.2-0.4,0-0.7,1.8c-0.1,1.2-0.5,2.4-0.7,3l-0.5,0.9
		l0.5,0.1c0.3,0.1,2.2,0.3,4.3,0.6c7.3,0.9,15.4,2.4,20.3,3.8c11.3,3.2,14.4,7,7.1,8.7c-5.7,1.4-14.9,1.8-27.5,1.1
		c-2.3-0.1-4.2-0.2-4.3-0.2c-0.1,0-0.2,0.4-0.2,0.9c0,1.5-0.5,3.1-1,3.6c-0.3,0.3-0.8,0.4-1.8,0.4c-1.2,0-1.4,0-1.5,0.5
		c-0.1,0.3-0.3,0.5-0.5,0.5s-0.6,0.1-0.9,0.2C1537.8,11680.8,1537.7,11680.8,1537.8,11679.7z M1400.1,11602.2l0.6-0.6l-0.3-1.4
		c-0.5-2.1-0.5-2-1-1.7c-0.3,0.2-0.5,0.6-0.5,0.9c0,0.4-0.3,0.6-0.8,0.8c-0.4,0.1-0.8,0.3-0.8,0.4c0,0.4,0.5,1.1,0.8,1.1
		c0.2,0,0.5,0.3,0.7,0.6C1399.3,11603,1399.4,11603,1400.1,11602.2z M1559,11596.2c2.2-0.3,5.1-0.5,6.4-0.6l2.4-0.2l-0.1-0.9
		c0-0.6,0.1-1.1,0.5-1.5c0.3-0.3,0.5-0.9,0.5-1.1c0-0.3,0.2-0.5,0.4-0.6c0.4-0.1,0.4-0.2,0.2-0.9c-0.1-0.5-0.4-1-0.7-1.2
		c-0.6-0.6-0.5-1.2,0.4-1.4c0.6-0.2,0.8-0.1,1.2,0.2c0.4,0.4,0.5,0.4,0.6,0c0.2-0.4-0.7-35.7-1-39.9l-0.2-2.5l-0.9-0.2
		c-1.5-0.3-1.5-0.4-1.5-3.4v-2.7l0.7-0.2l0.6-0.1l0.1-3c0.1-2.4-0.1-18.4-0.4-28.2v-1.9l-0.9-0.3c-0.5-0.2-1.2-0.3-1.6-0.3
		s-0.9-0.2-1.2-0.4c-0.5-0.4-0.6-0.4-1.1,0.3c-0.3,0.4-0.8,0.7-1,0.7c-0.4,0-0.5-0.1-0.3-1.6l0.2-1.6l-1.8-1.8
		c-2.5-2.5-3.1-3.3-7.3-9.4l-3.7-5.5l0.1,6.7c0.1,3.7,0.3,13.6,0.4,22c0.2,9,0.3,15.5,0.5,15.8c0.3,0.5,0.9,4.1,1,6.2
		c0.2,2.2,0,2.6-1,2.9l-0.8,0.3l0.1,3.1c0.1,1.7,0.2,3.2,0.2,3.4c0,0.1,0.8,0.4,1.8,0.5c2.6,0.4,2.6,0.4,2.8,1
		c0.1,0.3,0.9,0.9,1.9,1.3c0.9,0.5,1.7,0.9,1.7,1.1c0,0.3-0.5,0.6-1.2,0.6c-0.4,0-0.4,0.2-0.4,2.4c0,1.6-0.1,2.5-0.3,2.6
		c-0.6,0.5-2.8,1-4.3,1h-1.5v0.7c0,0.4,0.1,0.7,0.2,0.7s0.2,0.4,0.2,0.8c0,0.5,0.1,0.8,0.3,0.8c0.4,0,0.7,3.2,0.3,3.7
		c-0.2,0.3-0.3,0.8-0.1,2.3c0.3,2.7,0.2,5.3-0.2,5.5c-0.4,0.3-1.1-0.1-1.5-0.9c-0.3-0.6-0.3,0.8-0.4,12.1c-0.1,11.9,0,12.8,0.3,13.1
		c0.2,0.2,0.4,0.6,0.4,1s0,0.7,0.1,0.7s1.1-0.1,2.3-0.3C1553.9,11596.9,1556.8,11596.5,1559,11596.2z M1467.9,11590.6
		c0.1-0.3,0.1-0.9,0.1-1.5c0-1,0-1.1-0.6-1.1s-0.6,0-0.6,1.8s0,1.8,0.4,1.6C1467.5,11591.2,1467.8,11590.8,1467.9,11590.6z
		 M1519.1,11587.4c0.2-0.3,0.1-0.3-0.6-0.5c-0.9-0.2-1.1-0.1-0.9,0.4C1517.9,11587.8,1518.8,11587.8,1519.1,11587.4z
		 M1515.5,11585.5c0.3-0.3,0.3-1.1,0-1.1c-0.1,0-0.4-0.1-0.6-0.1c-0.3-0.1-0.4,0.1-0.4,1.4c0,1,0.1,1.5,0.3,1.6
		c0.2,0,0.3-0.2,0.3-0.7C1515.2,11586.1,1515.4,11585.6,1515.5,11585.5z M1379.9,11585.5c0.1-0.2,0.9-0.4,1.6-0.4
		c1.1-0.1,1.4-0.1,1.7,0.3c0.6,0.7,2.8,0.5,2.8-0.2c0-0.2,0.2-0.6,0.3-0.9c0.3-0.4,0.8-0.5,2.6-0.8l2.3-0.3v-1
		c0-0.8,0.1-1.2,0.7-1.7c1.2-1.2,1-1.3-1.8-0.9c-1.4,0.1-4.4,0.3-6.7,0.4c-3.7,0.1-4.2,0.2-4.1,0.5c0.3,0.6,0.4,2,0.2,2.6
		c-0.1,0.3-0.4,0.9-0.7,1.3c-0.3,0.4-0.5,0.9-0.5,1.1C1378.7,11585.9,1379.5,11586,1379.9,11585.5z M1467.9,11575.8v-7.6l-0.6-0.6
		l-0.6-0.6l-0.1,0.6c-0.2,0.6,0,10,0.2,13.9c0.1,2.3,0.1,2.3,0.6,2.2C1467.9,11583.4,1467.9,11583.4,1467.9,11575.8z
		 M1530.2,11579.1c0.1-0.5,0.2-0.5,2.1-0.6c1.2,0,2.2,0,2.4,0c0.3,0,0.4-1.5,0-1.8c-0.6-0.3-1.2-2-1.2-3.2c0-1,0.1-1.4,0.8-2.4
		c0.9-1.3,1-1.7,0.4-1.5c-1.2,0.3-7.9,0.9-14.6,1.2l-3.4,0.1v2.4c0,1.3,0.1,2.4,0.2,2.4c0.3,0,1.4-1.3,1.4-1.6
		c0-0.1,0.1-0.5,0.2-0.8c0.4-1,0.9-0.5,0.9,0.8c0,0.6,0.1,1.1,0.2,1.1s0.5,0.5,0.8,1l0.7,1h2.7c2.6,0,2.7,0,3.1,0.6
		c0.2,0.3,0.3,0.8,0.3,1.2c-0.1,0.6-0.1,0.6,1.3,0.6C1530,11579.6,1530.2,11579.6,1530.2,11579.1z M1515.4,11573.9l0.1-3.1l-0.5,0.1
		c-0.6,0.1-0.6,0.1-0.5,3.1c0,1.7,0.1,3.2,0.2,3.4C1515,11578.5,1515.3,11576.9,1515.4,11573.9z M1352,11570.5l0.7-0.4l-0.1-2.2
		c-0.1-1.2-0.3-2.5-0.4-2.9c-0.2-0.6-0.2-1,0-1.8c0.3-1.1,0.2-1.4-0.4-1.4c-0.4,0-0.4,0.2-0.4,2.9c0,1.7-0.1,3-0.2,3.2
		c-0.2,0.2-0.1,2.9,0.2,2.9C1351.2,11570.9,1351.6,11570.7,1352,11570.5z M1515.5,11569c0.2-0.7,0.2-1.6,0-1.6
		c-0.1,0-0.3,0.1-0.6,0.2c-0.6,0.3-0.6,1.8,0,1.8C1515.2,11569.5,1515.5,11569.3,1515.5,11569z M1352.1,11557
		c0-0.6-0.2-7.6-0.5-15.6c-0.5-14.6-0.6-15.7-1.3-14.9c-0.2,0.2-0.2,4,0.1,15.8c0.2,8.5,0.4,15.6,0.4,15.6s0.3,0,0.6,0
		C1352.1,11558,1352.1,11557.9,1352.1,11557z M1478.4,11547.7c-0.1-0.2,0-0.5,0.2-0.6c0.4-0.2,0.5-1.5,0.1-1.7s-0.7,0.2-0.8,1.1
		c-0.1,0.9,0,1.5,0.4,1.5C1478.5,11548.1,1478.5,11547.9,1478.4,11547.7z M1480.8,11545.9c0.4-0.1,0.5-1.2,0.2-1.2s-0.7,0.5-0.7,1
		C1480.2,11546,1480.2,11546.1,1480.8,11545.9z M1487.1,11545.4h1.3l-0.1-1.1c0-0.6-0.1-1.2-0.2-1.2c0,0-0.6,0.2-1.2,0.5
		s-1.4,0.6-2,0.6s-0.9,0.1-0.9,0.3c0,0.1-0.1,0.5-0.2,0.8c-0.1,0.6-0.1,0.6,0.9,0.4C1485.4,11545.6,1486.4,11545.4,1487.1,11545.4z
		 M1483.3,11544.6c0-0.8-0.7-0.8-0.8,0.1c-0.1,0.5,0,0.6,0.3,0.6C1483.2,11545.2,1483.3,11545,1483.3,11544.6z M1545.9,11544.4v-0.9
		l-1.7-0.3c-0.9-0.2-2-0.4-2.3-0.6c-1-0.5-1.6-0.4-1.5,0.2c0,0.4,0.4,0.6,2,1c1,0.3,2.2,0.8,2.6,1c0.4,0.3,0.8,0.5,0.8,0.5
		C1545.8,11545.3,1545.9,11544.9,1545.9,11544.4z M1498.6,11542c2.6-0.4,6.8-0.8,8.6-0.9h1.2l0.2-1c0.1-0.6,0.1-1.1,0.1-1.2
		c-0.1,0-1.5,0-3.2,0.3c-3,0.3-3.2,0.3-4.3-0.1c-1.2-0.5-2.2-0.6-2.4-0.2c-0.1,0.1-0.8,0.3-1.7,0.4c-2.1,0.2-2.4,0.4-2.4,1.5
		c0,1.3,0.3,1.8,1,1.7C1496,11542.4,1497.3,11542.2,1498.6,11542z M1526.3,11540.2c-8.4-1.7-9-1.8-11.1-1c-1,0.4-2.4,1.4-2.4,1.8
		c0,0.2,0.8,0.2,2.5,0.1c2.6-0.2,12.6,0.2,15.3,0.5C1534.9,11542.1,1533.5,11541.7,1526.3,11540.2z M1545.9,11541
		c0-0.6-0.1-0.8-0.5-0.8c-0.7,0-1.6-0.5-1.7-1c-0.2-1.1-1.3-0.4-1.7,1.1c-0.3,0.9-0.4,0.8,1.8,1.2
		C1545.7,11542,1545.9,11541.9,1545.9,11541z M1511.1,11539.9c0.4-0.7,0.7-1.3,0.7-1.4c0-0.2-1.2-0.1-1.5,0.1
		c-0.1,0.1-0.3,0.7-0.4,1.4C1509.6,11541.6,1510.1,11541.6,1511.1,11539.9z M1540.1,11539c0-0.9,0.4-3.5,0.6-4.3
		c0.1-0.3,0.3-0.4,0.6-0.4c0.5,0,0.6,0.2,0.8,1.1c0.3,1.3,0.6,1.7,1.2,1.7c0.3,0,0.4-0.2,0.4-0.5s0.1-0.8,0.3-1.1
		c0.2-0.3,0.4-1.6,0.5-2.8s0.3-2.3,0.4-2.4c0.3-0.3-0.4-51.5-0.6-52c-0.1-0.1-1.4-2.1-2.9-4.3s-2.9-4.1-2.9-4.3
		c-0.1-0.1-0.5,0-0.9,0.4c-0.4,0.3-0.8,0.6-0.9,0.6s-2.2,1.2-4.5,2.7c-4.1,2.6-4.5,2.8-7.2,3.6c-1.8,0.5-3,1-3.1,1.2
		c-0.1,0.3-0.2,3.3-0.2,8.1c0.1,6.1,0.1,7.8,0.4,8c0.2,0.1,0.4,1.1,0.6,2c0.1,1,0.4,2,0.6,2.2c0.2,0.3,0.3,0.9,0.3,1.7
		c0,1.2-0.1,1.5-0.6,2c-0.3,0.3-0.8,0.6-0.9,0.6c-0.4,0-0.4-0.5,0.1,13l0.3,11.1l4.4,5.9c2.4,3.2,4.6,5.9,4.7,6
		c1.1,0.4,5.3,1.1,6.8,1.1h1.7L1540.1,11539L1540.1,11539z M1528.2,11537.9c-0.1-0.2-1.3-1.7-2.6-3.4c-2.5-3.2-2.9-3.5-2.7-1.5
		c0.1,0.6,0.2,1.8,0.3,2.6l0.2,1.5l2.1,0.5C1528,11538.2,1528.4,11538.3,1528.2,11537.9z M1508.2,11536.2l1-0.1l-0.1-1.4
		c-0.1-0.8,0-1.8,0.1-2.3c0.2-0.8,0.2-0.9-0.2-0.6c-0.4,0.2-2.5,4.2-2.5,4.7c0,0.1,0.2,0.1,0.4,0
		C1507.1,11536.4,1507.7,11536.3,1508.2,11536.2z M1510.5,11535.9c0.1-0.1,0.6-0.3,1.2-0.4l1.1-0.1v-4.3c0-2.4-0.1-4.2-0.2-4.2
		s-0.2,0.3-0.2,0.6c0,0.8-0.8,2.3-1.4,2.7c-0.8,0.4-1.4,2.1-1.4,3.9c0,0.9,0.1,1.7,0.2,1.8
		C1510,11536.1,1510.3,11536.2,1510.5,11535.9z M1517,11530.1c0.3-1.1,1.1-1.1,1.2,0c0.1,0.6,0.2,0.7,0.5,0.7
		c0.3-0.1,0.4-0.4,0.3-2.5c-0.1-2.2-0.1-2.5-0.7-3.2c-0.6-0.8-0.7-0.8-1.7-0.7l-1.1,0.1v2.8c0,1.5,0.1,2.9,0.2,3.2
		C1516.1,11531,1516.7,11530.9,1517,11530.1z M1371.1,11507.7c2.9-0.3,5.3-0.5,5.3-0.6c0.1,0-2.5-31-2.6-31.1c0,0-0.8,0.1-1.6,0.3
		c-1.8,0.4-2.3,1-0.9,1c1.1,0,1.1,0.3,0,0.8s-2.5,0.8-4.6,1l-1.7,0.2v14.6c0,13.8,0,14.6,0.4,14.5
		C1365.7,11508.3,1368.2,11508,1371.1,11507.7z M1383.4,11507c1.7,0,3.5,0.1,4,0.2c0.8,0.2,0.9,0.1,0.9-0.3c0-0.3,0.2-0.7,0.4-0.9
		c0.3-0.4,0.3-0.5-0.7-2.2c-3.4-5.6-6.3-15.1-7.1-23.2c-0.1-1.3-0.2-1.5-0.6-1.6c-0.3,0-0.6-0.5-1-1.5c-0.5-1.4-0.5-1.4-0.1-2.5
		c0.2-0.6,0.4-1.1,0.3-1.1c0,0-0.7,0.3-1.5,0.7c-0.8,0.3-1.8,0.8-2.1,0.9c-0.5,0.2-0.6,0.4-0.6,0.8c0,0.3,0.7,7.4,1.5,15.7
		s1.5,15.2,1.5,15.2s0.5,0,1.1-0.1C1379.8,11507.1,1381.7,11507,1383.4,11507z M1567.2,11501.1l1.2-0.1l-0.1-1.6
		c-0.4-11.3-0.8-18.5-1-18.7c-0.3-0.3-5.6-0.2-9.3,0.2c-1.8,0.2-3.9,0.3-4.7,0.3c-0.8-0.1-1.8-0.1-2.3,0l-0.7,0.2l3.9,5.9
		c2.1,3.2,4.2,6.3,4.5,6.9c0.6,1.2,2.6,3.6,3.9,4.6c0.7,0.6,0.9,0.6,1.2,0.5c0.6-0.5,1.1,0,1.1,0.9s0.4,1.5,0.9,1.3
		C1565.9,11501.3,1566.5,11501.2,1567.2,11501.1z M1572.9,11497.5c1.3-1.5,1.5-2,2.9-8.5c0.8-3.5,1.4-6.4,1.3-6.4
		c-0.3-0.3-3.6-1.4-4.3-1.5c-0.5,0-1-0.1-1.2-0.2c-0.3-0.1-0.3,0.8-0.2,5.9c0.1,3.3,0.2,7.2,0.2,8.7
		C1571.7,11498.4,1571.8,11498.6,1572.9,11497.5z M1578.6,11486.9c1-2.5,1-2.6,0.6-3.2c-0.3-0.4-0.4-0.2-0.9,2.2
		c-0.3,1.5-0.7,2.8-0.8,3.1C1577.2,11490,1577.7,11489.1,1578.6,11486.9z M1578.2,11477.8c0.6-2.8,0.7-3.1,0.3-2.8
		c-0.2,0.1-0.7,0.4-1.2,0.5l-0.9,0.3v1.6c0,0.9-0.1,1.7-0.1,1.9c-0.1,0.2,0.1,0.5,0.5,0.7c0.3,0.2,0.7,0.3,0.7,0.3
		C1577.6,11480.2,1577.9,11479.1,1578.2,11477.8z M1558.7,11478.4c3.3-0.4,3.5-0.4,3.5-0.9c0-0.3-0.2-2.9-0.5-5.9s-0.5-5.5-0.5-5.6
		s-0.8,0.2-1.7,0.6c-0.9,0.4-2,0.8-2.3,0.9c-1.7,0.4-4.6,1.3-5,1.6c-0.2,0.2-0.6,0.3-1.1,0.2s-0.9,0-1.3,0.4
		c-0.6,0.5-0.6,0.5-0.5,4.7l0.1,4.2l1.9-0.1c1.2-0.1,2.1,0,2.3,0.1c0.2,0.1,0.6,0.2,0.9,0.2
		C1555,11478.8,1556.8,11478.6,1558.7,11478.4z M1358.6,11475c0-0.1-0.2-0.6-0.4-1c-0.2-0.4-0.4-1.2-0.4-1.8c0-0.9-0.3-1.5-2-4.3
		c-1.8-2.9-2-3.2-2.1-2.6c-0.3,0.8-1.5,2-2.5,2.5c-0.5,0.3-1,0.7-1.2,1.1l-0.4,0.6l1.4,1.3c1.8,1.7,4,3.1,5.9,3.8
		C1358.5,11475.3,1358.6,11475.4,1358.6,11475z M1573.3,11474.2l1.3-0.9v-7.8c0-6.4,0-7.8-0.3-7.6c-3.3,2-6.1,3.9-6,4
		s0.6,0.2,1.2,0.2c1.7,0,2.6,0.4,2.6,1.2c0,0.7-0.3,0.9-1.4,0.9c-0.6,0-0.6,0-0.6,1c0,0.5,0.1,1.3,0.2,1.8s0,0.9-0.1,1
		c-0.2,0.1-0.1,0.3,0.1,0.7c0.2,0.3,0.3,0.8,0.3,1.2c-0.1,0.3,0,1.2,0.2,1.8c0.2,0.7,0.2,1.3,0.1,1.5s-0.2,0.6-0.2,0.7
		c0,0.4,0.9,1.3,1.2,1.2C1572,11475.2,1572.6,11474.7,1573.3,11474.2z M1567.7,11474.5c0.6-0.6,0.7-1,0.2-1.2
		c-0.2-0.1-0.3-0.4-0.3-1c0-0.5-0.1-1.2-0.2-1.5c-0.2-0.4-0.2-0.9,0-1.2c0.2-0.4,0.1-0.8-0.1-1.2c-0.2-0.3-0.3-0.9-0.3-1.4v-0.9
		h-1.6h-1.7l0.1,1.7c0.1,0.9,0.2,2.8,0.3,4.3c0.2,2.6,0.2,2.6,0.8,2.7c0.3,0.1,0.7,0.2,0.8,0.2
		C1566.2,11475.2,1567.2,11475,1567.7,11474.5z M1527.1,11473.3c0.6-0.3,1.5-0.9,2-1.3l0.9-0.8l-1-1.6c-0.8-1.2-1.5-2-3.3-3.3
		c-1.2-0.9-2.2-1.7-2.3-1.6c0,0-0.2,1.3-0.4,2.7c-0.3,2.6-0.6,3.5-1.4,4.1c-0.4,0.3-0.4,0.3,0.1,1c0.3,0.4,0.6,0.9,0.7,1.2
		c0.1,0.4,0.3,0.4,1.8,0.3C1525.3,11473.9,1526.4,11473.7,1527.1,11473.3z M1371.7,11473.3c1.1-0.2,2-0.4,2.1-0.5
		c0,0-0.3-1.9-0.9-4.1c-1.1-4.4-1.3-5.9-1.8-9.3c-0.3-2.6-1.1-5.7-1.6-6.5c-0.3-0.5-0.6-0.5-1.8-0.5c-0.8,0-1.6,0.1-1.8,0.2
		c-0.3,0.2-0.4,2-0.6,10.1l-0.3,9.9l0.6,0.6c0.6,0.6,0.7,0.6,2.3,0.6C1369,11473.8,1370.6,11473.5,1371.7,11473.3z M1513.8,11473.7
		c0-0.1,0.3-0.5,0.6-0.8c0.5-0.5,0.7-0.6,1.4-0.5l0.8,0.2v-4c-0.1-3.4-0.1-4-0.4-3.9c-0.2,0-0.8,0.1-1.4,0.1c-0.9,0-1.4,0.3-3.3,1.6
		c-2.1,1.4-3.6,2.2-6,3.2c-0.6,0.2-1,0.5-1,0.6c0,0.3,5.1,3,5.7,3c0.4,0,0.6-0.2,0.8-0.9c0.5-1.6,1.6-1.4,1.6,0.4
		c0,0.5,0.1,1,0.2,1.1C1512.8,11474,1513.8,11473.9,1513.8,11473.7z M1578.6,11472.3c0.6-0.4,1.2-0.9,1.2-1.2
		c0.5-1.8,3.9-18.5,3.9-18.5s-1.7,0.9-3.7,2.1l-3.6,2.2l-0.1,7.8c0,4.3,0,8,0.1,8.1C1576.6,11473.2,1577.4,11473,1578.6,11472.3z
		 M1360.4,11463.1v-9.2l-2.3,3.9c-1.3,2.2-2.4,4.1-2.6,4.4c-0.2,0.4,0.1,1,1.2,3c0.8,1.4,1.6,2.8,1.9,3.1s0.4,0.9,0.4,1.5
		c0,0.7,0.2,1.2,0.6,1.7c0.3,0.4,0.6,0.7,0.7,0.7C1360.4,11472.3,1360.4,11468.2,1360.4,11463.1z M1378.2,11470.8
		c1.2-0.6,2.4-1.3,2.7-1.5c0.4-0.3,0.7-1.2,1.3-4c0.5-2,0.8-4,0.8-4.4c0-0.9-0.2-1.1-3.1-2.7c-1-0.6-3.1-1.7-4.7-2.6l-2.9-1.6l0.1,1
		c0.1,0.6,0,1.3-0.1,1.7c-0.2,0.4-0.2,1.2,0,2.6c0.3,2.1,2.3,12.4,2.5,12.7C1375,11472.4,1375.8,11472.1,1378.2,11470.8z
		 M1533.9,11468.9l1.2-0.8l-4.1-2.3c-2.3-1.2-4.6-2.5-5.2-2.9c-1-0.5-0.9-0.5,0.7,1c1.8,1.6,3.1,2.9,4.8,4.8
		c0.5,0.6,1.1,1.1,1.2,1.1C1532.5,11469.7,1533.2,11469.4,1533.9,11468.9z M1502.9,11468.3c0.5-0.3,1.4-0.8,2.1-1
		c1.7-0.6,2.4-1,5.2-2.9c1.9-1.3,2.4-1.8,2.5-2.3c0.1-0.6,0.2-0.7,1.3-0.9c0.7-0.2,1.7-0.5,2.2-0.7s1.1-0.5,1.3-0.6
		c1.2-0.4,0.4-1-6.2-4.7s-9.1-5.2-10.8-6.5c-0.9-0.7-2.6-1.3-2.9-1.1c-0.3,0.3-0.6,4.8-0.3,5.2c0.2,0.3,0.1,1-0.2,2.6
		c-0.4,1.8-0.4,2.4-0.2,3.3c0.1,0.6,0.2,1.5,0.1,1.9c-0.1,0.6-0.1,0.8,0.2,0.7c0.2-0.1,0.9-0.3,1.5-0.6c0.7-0.3,1.3-0.4,1.4-0.3
		c0.1,0.1-0.2,1.2-0.8,2.5c-0.8,1.9-1.1,2.4-1.7,2.6c-0.4,0.2-0.7,0.4-0.7,0.5c0,0.2,4.5,2.9,4.8,2.9
		C1502,11468.8,1502.4,11468.6,1502.9,11468.3z M1554.2,11465l1.9-0.6l-0.9-0.2c-0.6-0.1-1.7-0.1-2.9,0c-1.8,0.2-1.9,0.3-2,0.7
		s0,0.5,0.8,0.6c0.5,0,0.9,0.1,1,0.1S1553.1,11465.3,1554.2,11465z M1534.9,11464.3c0-0.1-0.6-0.9-1.1-1.7s-1.5-2.5-2.1-3.8
		c-0.8-1.7-1.3-2.4-1.8-2.7l-0.7-0.4l-2.2,1.5c-1.2,0.8-2.2,1.5-2.2,1.6C1524.8,11459,1534.4,11464.4,1534.9,11464.3
		C1535,11464.5,1535,11464.4,1534.9,11464.3z M1541.6,11462.1c0.5,0,1.2,0.2,1.7,0.5c0.4,0.3,0.8,0.4,0.9,0.3c0.1-0.1,0-2.5-0.1-5.5
		c-0.2-4.4-0.4-6-0.9-8.8c-0.4-1.9-0.7-3.5-0.7-3.5s-0.2,0-0.5,0c-0.4,0-0.6-0.2-0.9-0.7l-0.4-0.8l-3.5,3.6l-3.4,3.6l0.2,1.5
		c0.1,1,0.1,1.7,0,2.2c-0.2,0.6-0.1,1,1.5,4.1c0.9,1.8,2.1,3.8,2.5,4.4l0.8,1.1l1-1C1540.6,11462.3,1540.8,11462.1,1541.6,11462.1z
		 M1490.8,11461.6c0-0.9,0-1,0.5-0.9c0.8,0.1,1.6-0.7,1.5-1.6c-0.1-0.7-0.1-0.8-1.8-1c-0.9-0.2-1.8-0.3-1.8-0.2
		c-0.1,0.1,0.8,4.1,1,4.6C1490.5,11463.1,1490.8,11462.7,1490.8,11461.6z M1561.1,11460.5c0-0.6-0.1-1.2-0.2-1.2
		c-0.3,0-3.3,1.7-3.3,1.9s0.9,0.3,2.8,0.4h0.8L1561.1,11460.5z M1558.6,11459.8c1.2-0.8,2.3-1.5,2.3-1.7c0-1.7-0.4-5.2-0.5-5.3
		c-0.2-0.3-11.1,7.6-11.1,8.1c0,0.3,0.3,0.4,3.5,0.4h3.5L1558.6,11459.8z M1567.5,11458.2c1.8-1.1,3.5-2.1,3.5-2.3
		c0.2-0.2-1.4-1.4-1.7-1.3c-0.1,0-1.6,0.9-3.3,1.9c-3.4,1.9-3.4,1.9-3,3.5C1563.2,11460.9,1562.8,11461,1567.5,11458.2z
		 M1356.7,11456.5c2.3-3.9,2.9-5.4,1.9-5.1c-1.5,0.5-7.3,3.1-7.4,3.4c-0.1,0.2,0.3,1.2,1.4,3c0.9,1.5,1.6,2.7,1.7,2.7
		S1355.4,11458.7,1356.7,11456.5z M1555.3,11455.2c3.6-2.7,4.4-3.4,4.1-3.6c-0.7-0.5-0.4-1.1,0.9-2c0.7-0.5,1.2-1,1.2-1.2
		c0-0.1-2.2-1.7-4.9-3.5c-5.1-3.5-5.5-3.7-7.3-3l-0.8,0.3l0.2,4.9c0.1,2.7,0.2,6.7,0.3,8.8l0.1,4l0.9-0.6
		C1550.5,11458.9,1552.8,11457.1,1555.3,11455.2z M1566.1,11455.6c1.5-0.9,2.8-1.6,2.8-1.7c0-0.4-0.9-1.2-2-1.9
		c-1-0.6-1.5-0.7-2.8-0.7h-1.6l0.1,1.6c0.3,3.9,0.4,4.4,0.5,4.3C1563.2,11457.2,1564.5,11456.4,1566.1,11455.6z M1488.9,11454.3
		c-1.7-2.6-7.1-10.3-7.3-10.5c-0.1-0.1,0,0.1,0.2,0.5c1.1,1.6,5.2,8.6,5.9,10c0.8,1.5,1.1,1.8,1.6,1.3
		C1489.5,11455.3,1489.4,11455.1,1488.9,11454.3z M1527.9,11453.7c0.9-1,0.9-2,0.1-2.9c-0.3-0.3-0.7-0.6-0.8-0.6
		c-0.1,0-0.1,0.7,0,1.5c0.1,1.4,0.1,1.5-0.6,2c-0.4,0.3-0.7,0.7-0.7,0.9c0,0.4,0.1,0.4,0.7,0.2
		C1526.9,11454.6,1527.5,11454.2,1527.9,11453.7z M1574.1,11451.6c0.1-0.1,0.3-0.2,0.3-0.3c0-0.2-0.5-0.3-2.5-0.6
		c-1.5-0.2-1.5-0.2-1.5,0.4c0,0.3,0.2,0.8,0.5,1.1l0.5,0.5l1.2-0.5C1573.3,11451.9,1574,11451.7,1574.1,11451.6z"/>
</g>
</svg>
