<?xml version="1.0" encoding="utf-8"?>
<!-- Generator: Adobe Illustrator 27.9.3, SVG Export Plug-In . SVG Version: 9.03 Build 53313)  -->
<svg version="1.1" id="Слой_1" xmlns="http://www.w3.org/2000/svg" xmlns:xlink="http://www.w3.org/1999/xlink" x="0px" y="0px"
	 viewBox="0 0 170.1 113.4" style="enable-background:new 0 0 170.1 113.4;" xml:space="preserve">
<style type="text/css">
	.st0{fill-rule:evenodd;clip-rule:evenodd;fill:#1D1D1B;fill-opacity:0.4732;}
	.st1{fill-rule:evenodd;clip-rule:evenodd;fill:#1D1D1B;fill-opacity:0.35;}
	.st2{fill-rule:evenodd;clip-rule:evenodd;fill:#1D1D1B;fill-opacity:0.2;}
	.st3{fill-rule:evenodd;clip-rule:evenodd;fill:#1D1D1B;fill-opacity:0.15;}
	.st4{fill-rule:evenodd;clip-rule:evenodd;fill:#1D1D1B;fill-opacity:0.1;}
	.st5{fill-rule:evenodd;clip-rule:evenodd;fill:#1D1D1B;fill-opacity:0.3;}
</style>
<g id="Layer2">
	<g transform="matrix(1,0,0,1,-1.24382,14.9872)">
		<circle class="st0" cx="37.5" cy="0.2" r="0.1"/>
	</g>
	<g transform="matrix(1,0,0,1,119.436,226.576)">
		<circle class="st0" cx="-76" cy="-198.8" r="0.1"/>
	</g>
	<g transform="matrix(1,0,0,1,154.119,324.078)">
		<circle class="st0" cx="-108.6" cy="-290.5" r="0.1"/>
	</g>
	<g transform="matrix(1,0,0,1,0.0933424,453.519)">
		<circle class="st1" cx="36.2" cy="-412.2" r="0.1"/>
	</g>
	<g transform="matrix(1,0,0,1,119.672,665.614)">
		<circle class="st2" cx="-76.2" cy="-611.7" r="0.1"/>
	</g>
	<g transform="matrix(1,0,0,1,152.986,764.079)">
		<circle class="st3" cx="-107.6" cy="-704.3" r="0.1"/>
	</g>
	<g transform="matrix(1,0,0,1,764.444,945.681)">
		<circle class="st4" cx="-682.6" cy="-875.1" r="0.1"/>
	</g>
	<g transform="matrix(1,0,0,1,918.37,764.839)">
		<circle class="st3" cx="-827.4" cy="-705" r="0.1"/>
	</g>
	<g transform="matrix(1,0,0,1,885.334,668.029)">
		<circle class="st2" cx="-796.3" cy="-614" r="0.1"/>
	</g>
	<g transform="matrix(1,0,0,1,763.775,452.93)">
		<circle class="st1" cx="-682" cy="-411.7" r="0.1"/>
	</g>
	<g transform="matrix(1,0,0,1,1584.29,452.278)">
		<circle class="st1" cx="-1453.6" cy="-411.1" r="0.1"/>
	</g>
	<g transform="matrix(1,0,0,1,1739.7,763.558)">
		<circle class="st3" cx="-1599.8" cy="-703.8" r="0.1"/>
	</g>
	<g transform="matrix(1,0,0,1,1705.2,222.651)">
		<circle class="st0" cx="-1567.4" cy="-195.1" r="0.1"/>
	</g>
	<g transform="matrix(1,0,0,1,1738.95,321.996)">
		<circle class="st0" cx="-1599.1" cy="-288.6" r="0.1"/>
	</g>
	<g transform="matrix(1,0,0,1,1582.82,11.3228)">
		<circle class="st0" cx="-1452.3" cy="3.6" r="0.1"/>
	</g>
	<g transform="matrix(1,0,0,1,1300.87,313.962)">
		<circle class="st0" cx="-1187.1" cy="-281" r="0.1"/>
	</g>
	<g transform="matrix(1,0,0,1,916.774,323.662)">
		<circle class="st0" cx="-825.9" cy="-290.1" r="0.1"/>
	</g>
	<g transform="matrix(1,0,0,1,883.129,220.163)">
		<circle class="st0" cx="-794.2" cy="-192.8" r="0.1"/>
	</g>
	<g transform="matrix(1,0,0,1,764.744,10.0301)">
		<circle class="st0" cx="-682.9" cy="4.8" r="0.1"/>
	</g>
	<g transform="matrix(1,0,0,1,360.282,944.962)">
		<circle class="st4" cx="-302.5" cy="-874.4" r="0.1"/>
	</g>
	<g transform="matrix(1,0,0,1,-1.64387,947.879)">
		<circle class="st4" cx="37.8" cy="-877.2" r="0.1"/>
	</g>
	<g transform="matrix(0.606361,0,0,0.606361,348.483,94.8971)">
		<circle class="st0" cx="-504.2" cy="-128.9" r="0.1"/>
	</g>
	<g transform="matrix(0.606361,0,0,0.606361,697.374,96.2658)">
		<circle class="st0" cx="-1045.3" cy="-131" r="0.1"/>
	</g>
	<g transform="matrix(0.606361,0,0,0.606361,1182.05,212.43)">
		<circle class="st0" cx="-1797" cy="-311.2" r="0.1"/>
	</g>
	<g transform="matrix(0.606361,0,0,0.606361,1150.02,441.361)">
		<circle class="st1" cx="-1747.3" cy="-666.2" r="0.1"/>
	</g>
	<g transform="matrix(0.606361,0,0,0.606361,1113.01,535.924)">
		<circle class="st1" cx="-1689.9" cy="-812.9" r="0.1"/>
	</g>
	<g transform="matrix(0.606361,0,0,0.606361,419.113,212.445)">
		<circle class="st0" cx="-613.7" cy="-311.2" r="0.1"/>
	</g>
	<g transform="matrix(0.606361,0,0,0.606361,508.056,365.014)">
		<circle class="st0" cx="-751.7" cy="-547.8" r="0.1"/>
	</g>
	<g transform="matrix(0.606361,0,0,0.606361,719.515,366.779)">
		<circle class="st0" cx="-1079.6" cy="-550.5" r="0.1"/>
	</g>
	<g transform="matrix(0.606361,0,0,0.606361,1114.18,94.1846)">
		<circle class="st0" cx="-1691.8" cy="-127.8" r="0.1"/>
	</g>
	<g transform="matrix(0.606361,0,0,0.606361,1364.21,61.0999)">
		<circle class="st0" cx="-2079.6" cy="-76.4" r="0.1"/>
	</g>
	<g transform="matrix(0.606361,0,0,0.606361,1514.14,97.5105)">
		<circle class="st0" cx="-2312.1" cy="-132.9" r="0.1"/>
	</g>
	<g transform="matrix(0.606361,0,0,0.606361,1684.75,158.367)">
		<circle class="st0" cx="-2576.7" cy="-227.3" r="0.1"/>
	</g>
	<g transform="matrix(0.606361,0,0,0.606361,1970.7,-0.65533)">
		<circle class="st0" cx="-3020.2" cy="19.3" r="0.1"/>
	</g>
	<g transform="matrix(0.606361,0,0,0.606361,2093.95,-59.298)">
		<circle class="st0" cx="-3211.4" cy="110.3" r="0.1"/>
	</g>
	<g transform="matrix(0.606361,0,0,0.606361,863.273,272.94)">
		<circle class="st0" cx="-1302.6" cy="-405" r="0.1"/>
	</g>
	<g transform="matrix(0.606361,0,0,0.606361,864.715,155.738)">
		<circle class="st0" cx="-1304.8" cy="-223.2" r="0.1"/>
	</g>
	<g transform="matrix(0.606361,0,0,0.606361,600.013,504.041)">
		<circle class="st1" cx="-894.3" cy="-763.4" r="0.1"/>
	</g>
	<g transform="matrix(0.606361,0,0,0.606361,697.23,539.607)">
		<circle class="st5" cx="-1045.1" cy="-818.6" r="0.1"/>
	</g>
	<g transform="matrix(0.606361,0,0,0.606361,385.717,443.852)">
		<circle class="st1" cx="-561.9" cy="-670.1" r="0.1"/>
	</g>
	<g transform="matrix(0.606361,0,0,0.606361,349.099,536.117)">
		<circle class="st1" cx="-505.1" cy="-813.2" r="0.1"/>
	</g>
	<g transform="matrix(0.606361,0,0,0.606361,417.83,650.566)">
		<circle class="st2" cx="-611.7" cy="-990.7" r="0.1"/>
	</g>
	<g transform="matrix(0.606361,0,0,0.606361,386.432,939.189)">
		<circle class="st3" cx="-563" cy="-1438.3" r="0.1"/>
	</g>
	<g transform="matrix(0.606361,0,0,0.606361,1066.51,944.994)">
		<circle class="st3" cx="-1617.8" cy="-1447.3" r="0.1"/>
	</g>
	<g transform="matrix(0.606361,0,0,0.606361,1366.87,994.765)">
		<circle class="st4" cx="-2083.7" cy="-1524.5" r="0.1"/>
	</g>
	<g transform="matrix(0.606361,0,0,0.606361,1540.33,804.654)">
		<circle class="st3" cx="-2352.7" cy="-1229.7" r="0.1"/>
	</g>
	<g transform="matrix(0.606361,0,0,0.606361,1683.58,713.443)">
		<circle class="st2" cx="-2574.9" cy="-1088.2" r="0.1"/>
	</g>
	<g transform="matrix(0.606361,0,0,0.606361,1685.37,601.222)">
		<circle class="st2" cx="-2577.7" cy="-914.2" r="0.1"/>
	</g>
	<g transform="matrix(0.606361,0,0,0.606361,2003.7,211.781)">
		<circle class="st0" cx="-3071.4" cy="-310.1" r="0.1"/>
	</g>
	<g transform="matrix(0.606361,0,0,0.606361,2093.31,367.531)">
		<circle class="st0" cx="-3210.4" cy="-551.7" r="0.1"/>
	</g>
	<g transform="matrix(0.606361,0,0,0.606361,1970.53,440.205)">
		<circle class="st1" cx="-3019.9" cy="-664.4" r="0.1"/>
	</g>
	<g transform="matrix(0.606361,0,0,0.606361,1932.06,531.889)">
		<circle class="st1" cx="-2960.3" cy="-806.6" r="0.1"/>
	</g>
	<g transform="matrix(0.606361,0,0,0.606361,2183.92,500.115)">
		<circle class="st1" cx="-3350.9" cy="-757.3" r="0.1"/>
	</g>
	<g transform="matrix(0.606361,0,0,0.606361,1942.89,721.033)">
		<circle class="st2" cx="-2977.1" cy="-1100" r="0.1"/>
	</g>
	<g transform="matrix(0.606361,0,0,0.606361,1824.09,999.402)">
		<circle class="st4" cx="-2792.8" cy="-1531.7" r="0.1"/>
	</g>
	<g transform="matrix(0.606361,0,0,0.606361,2002.85,651.559)">
		<circle class="st2" cx="-3070.1" cy="-992.2" r="0.1"/>
	</g>
	<g transform="matrix(0.606361,0,0,0.606361,2182.54,997.174)">
		<circle class="st4" cx="-3348.8" cy="-1528.3" r="0.1"/>
	</g>
	<g transform="matrix(0.606361,0,0,0.606361,2093.95,856.984)">
		<circle class="st3" cx="-3211.4" cy="-1310.8" r="0.1"/>
	</g>
	<g transform="matrix(0.606361,0,0,0.606361,1971.09,936.092)">
		<circle class="st3" cx="-3020.8" cy="-1433.5" r="0.1"/>
	</g>
	<g transform="matrix(0.606361,0,0,0.606361,1886.96,943.351)">
		<circle class="st3" cx="-2890.3" cy="-1444.8" r="0.1"/>
	</g>
	<g transform="matrix(0.606361,0,0,0.606361,1182.25,649.519)">
		<circle class="st2" cx="-1797.3" cy="-989.1" r="0.1"/>
	</g>
	<g transform="matrix(0.606361,0,0,0.606361,1366.11,503.613)">
		<circle class="st1" cx="-2082.5" cy="-762.8" r="0.1"/>
	</g>
	<g transform="matrix(0.606361,0,0,0.606361,1517.84,538.704)">
		<circle class="st5" cx="-2317.8" cy="-817.2" r="0.1"/>
	</g>
	<g transform="matrix(0.606361,0,0,0.606361,1684.03,272.975)">
		<circle class="st0" cx="-2575.6" cy="-405.1" r="0.1"/>
	</g>
	<g transform="matrix(0.606361,0,0,0.606361,1781.89,352.97)">
		<circle class="st0" cx="-2727.4" cy="-529.1" r="0.1"/>
	</g>
	<g transform="matrix(0.606361,0,0,0.606361,1933.36,93.2541)">
		<circle class="st0" cx="-2962.3" cy="-126.3" r="0.1"/>
	</g>
	<g transform="matrix(0.606361,0,0,0.606361,2185.02,60.0011)">
		<circle class="st0" cx="-3352.6" cy="-74.7" r="0.1"/>
	</g>
	<g transform="matrix(0.606361,0,0,0.606361,1273.79,365.821)">
		<circle class="st0" cx="-1939.3" cy="-549.1" r="0.1"/>
	</g>
	<g transform="matrix(0.606361,0,0,0.606361,1150.95,935.416)">
		<circle class="st3" cx="-1748.8" cy="-1432.5" r="0.1"/>
	</g>
	<g transform="matrix(0.606361,0,0,0.606361,1273.16,859.309)">
		<circle class="st3" cx="-1938.3" cy="-1314.4" r="0.1"/>
	</g>
	<g transform="matrix(0.745001,0,0,0.745001,-152.977,518.164)">
		<circle class="st5" cx="229.4" cy="-637.7" r="0.1"/>
	</g>
	<g transform="matrix(0.606361,0,0,0.606361,98.559,601.912)">
		<circle class="st2" cx="-116.6" cy="-915.2" r="0.1"/>
	</g>
	<g transform="matrix(0.606361,0,0,0.606361,97.4146,715.028)">
		<circle class="st2" cx="-114.8" cy="-1090.7" r="0.1"/>
	</g>
	<g transform="matrix(0.406073,0,0,0.406073,370.783,702.879)">
		<circle class="st2" cx="-822.4" cy="-1604.4" r="0.1"/>
	</g>
	<g transform="matrix(0.406073,0,0,0.406073,204.223,459.432)">
		<circle class="st1" cx="-436.7" cy="-1040.6" r="0.1"/>
	</g>
	<g transform="matrix(0.406073,0,0,0.406073,320.405,378.569)">
		<circle class="st0" cx="-705.7" cy="-853.3" r="0.1"/>
	</g>
	<g transform="matrix(0.406073,0,0,0.406073,423.142,476.578)">
		<circle class="st1" cx="-943.7" cy="-1080.3" r="0.1"/>
	</g>
	<g transform="matrix(0.406073,0,0,0.406073,702.415,716.499)">
		<circle class="st2" cx="-1590.5" cy="-1636" r="0.1"/>
	</g>
	<g transform="matrix(0.406073,0,0,0.406073,986.763,627.404)">
		<circle class="st2" cx="-2249" cy="-1429.6" r="0.1"/>
	</g>
	<g transform="matrix(0.406073,0,0,0.406073,1135.99,704.296)">
		<circle class="st2" cx="-2594.6" cy="-1607.7" r="0.1"/>
	</g>
	<g transform="matrix(0.406073,0,0,0.406073,1465.78,714.285)">
		<circle class="st2" cx="-3358.4" cy="-1630.8" r="0.1"/>
	</g>
	<g transform="matrix(0.406073,0,0,0.406073,968.917,460.33)">
		<circle class="st1" cx="-2207.7" cy="-1042.7" r="0.1"/>
	</g>
	<g transform="matrix(0.406073,0,0,0.406073,1085.35,379.202)">
		<circle class="st0" cx="-2477.3" cy="-854.8" r="0.1"/>
	</g>
	<g transform="matrix(0.406073,0,0,0.406073,1186.88,479.203)">
		<circle class="st1" cx="-2712.5" cy="-1086.4" r="0.1"/>
	</g>
	<g transform="matrix(0.406073,0,0,0.406073,1138.25,262.019)">
		<circle class="st0" cx="-2599.8" cy="-583.4" r="0.1"/>
	</g>
	<g transform="matrix(0.406073,0,0,0.406073,1466.64,272.947)">
		<circle class="st0" cx="-3360.4" cy="-608.7" r="0.1"/>
	</g>
	<g transform="matrix(0.406073,0,0,0.406073,1511.77,233.181)">
		<circle class="st0" cx="-3464.9" cy="-516.6" r="0.1"/>
	</g>
	<g transform="matrix(0.406073,0,0,0.406073,1789.47,18.5338)">
		<circle class="st0" cx="-4108" cy="-19.5" r="0.1"/>
	</g>
	<g transform="matrix(0.406073,0,0,0.406073,2009.79,38.847)">
		<circle class="st0" cx="-4618.3" cy="-66.6" r="0.1"/>
	</g>
	<g transform="matrix(0.406073,0,0,0.406073,1787.23,457.131)">
		<circle class="st1" cx="-4102.9" cy="-1035.3" r="0.1"/>
	</g>
	<g transform="matrix(0.406073,0,0,0.406073,1955.63,701.881)">
		<circle class="st2" cx="-4492.9" cy="-1602.1" r="0.1"/>
	</g>
	<g transform="matrix(0.406073,0,0,0.406073,2285.03,715.707)">
		<circle class="st2" cx="-5255.7" cy="-1634.1" r="0.1"/>
	</g>
	<g transform="matrix(0.406073,0,0,0.406073,1905.23,823.108)">
		<circle class="st3" cx="-4376.1" cy="-1882.9" r="0.1"/>
	</g>
	<g transform="matrix(0.406073,0,0,0.406073,2008.61,478.69)">
		<circle class="st1" cx="-4615.6" cy="-1085.2" r="0.1"/>
	</g>
	<g transform="matrix(0.406073,0,0,0.406073,1956.4,259.798)">
		<circle class="st0" cx="-4494.6" cy="-578.3" r="0.1"/>
	</g>
	<g transform="matrix(0.406073,0,0,0.406073,2284.07,273.085)">
		<circle class="st0" cx="-5253.5" cy="-609" r="0.1"/>
	</g>
	<g transform="matrix(0.406073,0,0,0.406073,985.786,739.293)">
		<circle class="st2" cx="-2246.7" cy="-1688.8" r="0.1"/>
	</g>
	<g transform="matrix(0.406073,0,0,0.406073,1084.38,823.027)">
		<circle class="st3" cx="-2475.1" cy="-1882.7" r="0.1"/>
	</g>
	<g transform="matrix(0.406073,0,0,0.406073,840.43,833.278)">
		<circle class="st3" cx="-1910.1" cy="-1906.4" r="0.1"/>
	</g>
	<g transform="matrix(0.406073,0,0,0.406073,631.785,887.343)">
		<circle class="st3" cx="-1426.9" cy="-2031.6" r="0.1"/>
	</g>
	<g transform="matrix(0.406073,0,0,0.406073,967.283,953.532)">
		<circle class="st3" cx="-2203.9" cy="-2184.9" r="0.1"/>
	</g>
	<g transform="matrix(0.406073,0,0,0.406073,370.668,258.96)">
		<circle class="st0" cx="-822.2" cy="-576.3" r="0.1"/>
	</g>
	<g transform="matrix(0.406073,0,0,0.406073,422.408,36.2661)">
		<circle class="st0" cx="-942" cy="-60.6" r="0.1"/>
	</g>
	<g transform="matrix(0.406073,0,0,0.406073,203.518,16.3431)">
		<circle class="st0" cx="-435" cy="-14.4" r="0.1"/>
	</g>
	<g transform="matrix(0.406073,0,0,0.406073,699.701,274.383)">
		<circle class="st0" cx="-1584.2" cy="-612.1" r="0.1"/>
	</g>
	<g transform="matrix(0.406073,0,0,0.406073,77.9297,835.046)">
		<circle class="st3" cx="-144.2" cy="-1910.5" r="0.1"/>
	</g>
	<g transform="matrix(0.406073,0,0,0.406073,319.393,824.115)">
		<circle class="st3" cx="-703.4" cy="-1885.2" r="0.1"/>
	</g>
	<g transform="matrix(0.406073,0,0,0.406073,202.501,957.068)">
		<circle class="st3" cx="-432.7" cy="-2193.1" r="0.1"/>
	</g>
	<g transform="matrix(0.406073,0,0,0.406073,422.269,973.632)">
		<circle class="st3" cx="-941.7" cy="-2231.5" r="0.1"/>
	</g>
	<g transform="matrix(0.606361,0,0,0.606361,-46.2098,363.319)">
		<circle class="st0" cx="108" cy="-545.2" r="0.1"/>
	</g>
	<g transform="matrix(0.606361,0,0,0.606361,98.0026,275.813)">
		<circle class="st0" cx="-115.7" cy="-409.5" r="0.1"/>
	</g>
	<g transform="matrix(0.606361,0,0,0.606361,599.943,63.43)">
		<circle class="st0" cx="-894.2" cy="-80.1" r="0.1"/>
	</g>
	<g transform="matrix(0.606361,0,0,0.606361,-68.2866,98.9897)">
		<circle class="st0" cx="142.2" cy="-135.2" r="0.1"/>
	</g>
	<g transform="matrix(0.495408,0,0,0.495408,168.342,178.2)">
		<circle class="st0" cx="-283.3" cy="-317.7" r="0.1"/>
	</g>
	<g transform="matrix(0.495408,0,0,0.495408,453.76,18.3347)">
		<circle class="st0" cx="-825.1" cy="-14.2" r="0.1"/>
	</g>
	<g transform="matrix(0.495408,0,0,0.495408,576.309,-42.9117)">
		<circle class="st0" cx="-1057.7" cy="102.1" r="0.1"/>
	</g>
	<g transform="matrix(0.495408,0,0,0.495408,915.057,1.23093)">
		<circle class="st0" cx="-1700.8" cy="18.3" r="0.1"/>
	</g>
	<g transform="matrix(0.495408,0,0,0.495408,1134.75,25.5263)">
		<circle class="st0" cx="-2117.8" cy="-27.8" r="0.1"/>
	</g>
	<g transform="matrix(0.495408,0,0,0.495408,1221.08,13.1704)">
		<circle class="st0" cx="-2281.7" cy="-4.4" r="0.1"/>
	</g>
	<g transform="matrix(0.495408,0,0,0.495408,1339.09,-44.1622)">
		<circle class="st0" cx="-2505.7" cy="104.5" r="0.1"/>
	</g>
</g>
</svg>
